<?xml version="1.0" encoding="UTF-8"?>
<svg version="1.1" xmlns="http://www.w3.org/2000/svg" width="512" height="512">
<path d="M0 0 C0.71955872 0.00182281 1.43911743 0.00364563 2.18048096 0.00552368 C13.5981784 0.0540417 24.60408619 0.71036072 35.75 3.3125 C36.52939941 3.48942383 37.30879883 3.66634766 38.11181641 3.84863281 C85.95190269 14.93948765 125.19082088 43.52651229 151.36474609 85.03125 C159.1891721 97.91659307 170.75 118.20104168 170.75 133.3125 C171.925625 133.51875 173.10125 133.725 174.3125 133.9375 C202.07003095 140.23615726 225.36682104 159.68469043 240.390625 183.3125 C255.51872793 208.19199722 260.34225444 240.16847945 253.8515625 268.52734375 C248.7441056 286.07743503 241.81350284 301.37666567 229.75 315.3125 C229.12480469 316.07046875 228.49960937 316.8284375 227.85546875 317.609375 C210.44587843 338.17467517 184.33660786 351.08268819 157.75 354.3125 C155.08862196 354.39665615 152.45528939 354.43960677 149.79516602 354.42602539 C149.03336533 354.42617142 148.27156464 354.42631744 147.48667908 354.4264679 C144.99239154 354.4257765 142.49818059 354.41802061 140.00390625 354.41015625 C138.26513205 354.40828932 136.52635732 354.40686672 134.7875824 354.40586853 C130.22887703 354.402065 125.67020392 354.39225334 121.11151123 354.38116455 C116.45260047 354.37090375 111.79368445 354.36636093 107.13476562 354.36132812 C98.00649402 354.350629 88.87825475 354.33304988 79.75 354.3125 C79.75 343.4225 79.75 332.5325 79.75 321.3125 C85.06222656 321.28671875 90.37445313 321.2609375 95.84765625 321.234375 C99.24288462 321.20916461 102.63802758 321.18279962 106.03320312 321.15234375 C111.40470533 321.10426738 116.77600944 321.06012694 122.14770508 321.04150391 C126.48572594 321.02619431 130.82322324 320.9915015 135.16100883 320.94419098 C136.80367887 320.92952286 138.44642371 320.92146751 140.08915901 320.92061615 C153.9249917 320.90625402 166.71006505 319.11553636 179.125 312.5 C179.78927002 312.15743164 180.45354004 311.81486328 181.13793945 311.46191406 C186.48251821 308.62870632 191.17738034 305.27229435 195.75 301.3125 C196.55308594 300.70535156 197.35617187 300.09820312 198.18359375 299.47265625 C210.80394886 288.8500438 219.65658585 270.51325683 221.75 254.3125 C223.54742071 232.09449217 219.63079135 210.59216074 205.15625 192.9609375 C204.46015625 192.14496094 204.46015625 192.14496094 203.75 191.3125 C203.3271875 190.74789062 202.904375 190.18328125 202.46875 189.6015625 C191.11558055 175.0140599 173.62914103 168.51234089 156.25048828 164.52856445 C150.74189382 163.19259468 147.22364882 162.07746808 143.75 157.3125 C140.93079714 152.18461391 139.24317725 146.87605071 137.82519531 141.22290039 C132.19621933 118.84276425 121.41084553 99.22312175 105.69140625 82.41015625 C103.75 80.3125 103.75 80.3125 101.375 77.25 C78.59824912 51.76173116 41.50986654 37.51147684 8.08984375 35.49609375 C-28.79893706 33.9370359 -63.90600581 45.56815534 -92.25 69.3125 C-92.83217285 69.79831543 -93.4143457 70.28413086 -94.01416016 70.78466797 C-120.18665304 92.96939502 -138.34609773 126.90909781 -141.51806641 161.21142578 C-141.85673024 165.47727487 -142.18552977 169.7411707 -142.4284668 174.01367188 C-142.89334809 181.08679747 -143.82194353 185.8279771 -148.9375 191.0625 C-153.39019582 194.44525192 -158.21864811 195.08315382 -163.640625 195.6953125 C-177.28604872 197.23954769 -188.0693233 201.32372617 -199.25 209.3125 C-199.88421875 209.74949219 -200.5184375 210.18648437 -201.171875 210.63671875 C-212.13230961 219.00787638 -219.73907164 234.13946278 -221.96875 247.49609375 C-223.88580041 266.69322355 -219.98632929 283.49159357 -208.125 299.125 C-198.17649684 310.61315246 -183.24872554 319.18782352 -167.97706413 320.50915909 C-165.60800899 320.59476674 -163.24534263 320.62509166 -160.87475586 320.63134766 C-159.9858667 320.64139328 -159.09697754 320.6514389 -158.18115234 320.66178894 C-155.27572206 320.69240413 -152.37038298 320.70959528 -149.46484375 320.7265625 C-147.43745653 320.74529161 -145.41007697 320.7648663 -143.38270569 320.7852478 C-138.07114185 320.83639086 -132.75955279 320.87611163 -127.44787598 320.91339111 C-122.01792248 320.95354297 -116.5880723 321.00458411 -111.15820312 321.0546875 C-100.52220107 321.15123559 -89.88615573 321.23469993 -79.25 321.3125 C-79.25 332.2025 -79.25 343.0925 -79.25 354.3125 C-91.19519354 354.4033805 -103.14015214 354.47654764 -115.08561516 354.51974869 C-120.6341946 354.54049778 -126.18252237 354.56857983 -131.73095703 354.61425781 C-137.09969633 354.65817269 -142.46819573 354.68173204 -147.83710098 354.69200897 C-149.87091974 354.69931935 -151.90472749 354.71359084 -153.93844223 354.73542023 C-170.13029277 354.90208254 -185.83814131 353.65051226 -200.6875 346.5625 C-201.43064453 346.21888428 -202.17378906 345.87526855 -202.93945312 345.52124023 C-209.27803053 342.4933145 -214.87081606 338.84233911 -220.25 334.3125 C-221.53970703 333.2296875 -221.53970703 333.2296875 -222.85546875 332.125 C-241.74885839 315.66116878 -254.66044487 293.43665138 -256.47753906 268.14550781 C-257.79085523 239.49208773 -251.47695799 214.80882344 -231.9375 193.125 C-216.85064282 176.97407581 -198.2975689 166.32716758 -176.25 163.3125 C-176.23582031 162.55710938 -176.22164063 161.80171875 -176.20703125 161.0234375 C-174.25194582 115.89795228 -150.42444907 74.30404673 -118.06689453 43.9609375 C-104.80679634 31.93027599 -89.42538036 22.8078414 -73.25 15.3125 C-72.27885254 14.85230469 -72.27885254 14.85230469 -71.28808594 14.3828125 C-49.10531674 3.99608315 -24.35640914 -0.12913758 0 0 Z " fill="#000000" transform="translate(256.25,54.6875)"/>
<path d="M0 0 C7.01816182 6.26010447 13.60859462 12.95511751 20.24230957 19.61631775 C21.57587087 20.95174727 22.90965545 22.28695385 24.24365234 23.62194824 C27.73102605 27.11311528 31.21538447 30.60727634 34.69909668 34.10209656 C38.2637474 37.67703032 41.83127874 41.24908694 45.39855957 44.82139587 C52.38052835 51.81404574 59.35931104 58.80986601 66.33605957 65.807724 C64.6375192 69.42855528 62.62501175 71.75027754 59.76574707 74.573349 C58.86984863 75.46280212 57.9739502 76.35225525 57.05090332 77.2686615 C56.11375488 78.18905212 55.17660645 79.10944275 54.21105957 80.057724 C53.2561732 81.00257256 52.30174098 81.94788033 51.34777832 82.8936615 C49.0149687 85.20290738 46.67761871 87.50735602 44.33605957 89.807724 C29.57274167 82.42606505 20.00748717 67.4791516 8.33605957 55.807724 C8.00605957 105.307724 7.67605957 154.807724 7.33605957 205.807724 C-3.55394043 205.807724 -14.44394043 205.807724 -25.66394043 205.807724 C-26.15894043 131.062724 -26.15894043 131.062724 -26.66394043 54.807724 C-38.21394043 66.357724 -49.76394043 77.907724 -61.66394043 89.807724 C-67.02096862 85.21598555 -72.13710989 80.60901793 -77.16394043 75.682724 C-77.9038623 74.98018494 -78.64378418 74.27764587 -79.40612793 73.55381775 C-80.09964355 72.87190369 -80.79315918 72.18998962 -81.50769043 71.4874115 C-82.45418457 70.57064636 -82.45418457 70.57064636 -83.4197998 69.63536072 C-84.66394043 67.807724 -84.66394043 67.807724 -84.396595 65.87178135 C-83.16866046 62.4124058 -80.40988709 60.14743679 -77.84655762 57.61802673 C-77.23996811 57.00778656 -76.6333786 56.39754639 -76.00840759 55.76881409 C-73.99987697 53.7521735 -71.98068174 51.7465996 -69.96081543 49.74131775 C-68.56123614 48.34225711 -67.16217494 46.94267801 -65.76361084 45.54260254 C-62.82932152 42.60840297 -59.8899289 39.67944399 -56.94665527 36.7542572 C-53.17760177 33.00785926 -49.41968586 29.25052492 -45.66532516 25.48940945 C-42.77635345 22.59709238 -39.88240854 19.70979419 -36.98685455 16.82406807 C-35.59967372 15.44073208 -34.21383359 14.05605029 -32.82936859 12.66999626 C-30.89076599 10.73102193 -28.94577879 8.79868777 -26.99890137 6.86802673 C-26.42935226 6.29600021 -25.85980316 5.72397369 -25.272995 5.13461304 C-18.23657034 -1.80872129 -9.21411506 -6.60226055 0 0 Z " fill="#000000" transform="translate(265.6639404296875,251.19227600097656)"/>
</svg>
