<?xml version="1.0" encoding="UTF-8"?>
<svg version="1.1" xmlns="http://www.w3.org/2000/svg" width="512" height="512">
<path d="M0 0 C1.01790619 0.00215515 2.03581238 0.0043103 3.08456421 0.00653076 C17.69363523 0.05620146 32.02575853 0.30709809 46.375 3.3125 C47.34985352 3.51117676 48.32470703 3.70985352 49.32910156 3.91455078 C97.7109774 14.03517194 141.69928269 35.9516877 177.375 70.3125 C178.3640332 71.26068604 178.3640332 71.26068604 179.37304688 72.22802734 C188.86130305 81.37247479 197.6012044 90.66984009 205.375 101.3125 C206.23306152 102.46355017 207.09113451 103.61459177 207.94921875 104.765625 C213.98736829 112.95680614 219.34595521 121.47054105 224.375 130.3125 C224.73948242 130.94430176 225.10396484 131.57610352 225.47949219 132.22705078 C247.08534998 169.97532572 256.85198095 212.74189997 256.6875 255.9375 C256.68534485 256.95540619 256.6831897 257.97331238 256.68096924 259.02206421 C256.63129854 273.63113523 256.38040191 287.96325853 253.375 302.3125 C253.07698486 303.77478027 253.07698486 303.77478027 252.77294922 305.26660156 C242.65232806 353.6484774 220.7358123 397.63678269 186.375 433.3125 C185.74287598 433.97185547 185.11075195 434.63121094 184.45947266 435.31054688 C175.31502521 444.79880305 166.01765991 453.5387044 155.375 461.3125 C154.22394983 462.17056152 153.07290823 463.02863451 151.921875 463.88671875 C143.73224019 469.92427396 135.22961724 475.30707302 126.375 480.3125 C125.66778809 480.7146875 124.96057617 481.116875 124.23193359 481.53125 C101.09654164 494.5566741 75.92537591 503.30551461 49.9375 508.625 C49.21860596 508.77235596 48.49971191 508.91971191 47.7590332 509.0715332 C33.08339502 511.86090125 18.55831162 512.66142619 3.64770508 512.62817383 C0.70811513 512.6250221 -2.2304558 512.64854926 -5.16992188 512.67382812 C-18.54306192 512.71848737 -31.43916711 511.51301542 -44.625 509.3125 C-46.33055054 509.03031616 -46.33055054 509.03031616 -48.07055664 508.74243164 C-50.6662622 508.27617402 -53.23774939 507.7574418 -55.8125 507.1875 C-57.20142456 506.88054199 -57.20142456 506.88054199 -58.6184082 506.56738281 C-103.06909585 496.23155661 -143.80440564 473.92342102 -176.625 442.3125 C-177.28435547 441.68037598 -177.94371094 441.04825195 -178.62304688 440.39697266 C-188.11130305 431.25252521 -196.8512044 421.95515991 -204.625 411.3125 C-205.48306152 410.16144983 -206.34113451 409.01040823 -207.19921875 407.859375 C-213.23677396 399.66974019 -218.61957302 391.16711724 -223.625 382.3125 C-224.0271875 381.60528809 -224.429375 380.89807617 -224.84375 380.16943359 C-237.8691741 357.03404164 -246.61801461 331.86287591 -251.9375 305.875 C-252.08485596 305.15610596 -252.23221191 304.43721191 -252.3840332 303.6965332 C-255.35789088 288.05024391 -255.99800362 272.57681954 -255.9375 256.6875 C-255.93534485 255.66959381 -255.9331897 254.65168762 -255.93096924 253.60293579 C-255.88129854 238.99386477 -255.63040191 224.66174147 -252.625 210.3125 C-252.42632324 209.33764648 -252.22764648 208.36279297 -252.02294922 207.35839844 C-241.90232806 158.9765226 -219.9858123 114.98821731 -185.625 79.3125 C-184.99287598 78.65314453 -184.36075195 77.99378906 -183.70947266 77.31445312 C-174.56502521 67.82619695 -165.26765991 59.0862956 -154.625 51.3125 C-153.47394983 50.45443848 -152.32290823 49.59636549 -151.171875 48.73828125 C-142.98224019 42.70072604 -134.47961724 37.31792698 -125.625 32.3125 C-124.91778809 31.9103125 -124.21057617 31.508125 -123.48193359 31.09375 C-100.34654164 18.0683259 -75.17537591 9.31948539 -49.1875 4 C-48.46860596 3.85264404 -47.74971191 3.70528809 -47.0090332 3.5534668 C-31.36274391 0.57960912 -15.88931954 -0.06050362 0 0 Z M-35 23.9375 C-36.68947754 24.20481934 -36.68947754 24.20481934 -38.41308594 24.47753906 C-86.63283535 32.49833048 -129.54938127 55.62144517 -164.625 89.3125 C-165.5221875 90.1684375 -166.419375 91.024375 -167.34375 91.90625 C-173.2616386 97.67801789 -178.56725978 103.77712282 -183.625 110.3125 C-184.04894043 110.8600293 -184.47288086 111.40755859 -184.90966797 111.97167969 C-213.83184242 149.6117182 -234.11148603 197.2978031 -233.625 245.3125 C-232.34858643 245.32708252 -231.07217285 245.34166504 -229.75708008 245.35668945 C-225.01379621 245.4147354 -220.27098393 245.49196828 -215.52807617 245.57495117 C-213.47672184 245.60817083 -211.42527675 245.63621197 -209.3737793 245.65893555 C-206.42197051 245.6925357 -203.47099114 245.74485476 -200.51953125 245.80078125 C-199.60476517 245.80717117 -198.68999908 245.8135611 -197.74751282 245.82014465 C-192.92473094 245.93108165 -189.49887033 246.11640379 -185.625 249.3125 C-183.16571256 253.00143116 -182.93194421 256.02891421 -183.625 260.3125 C-185.7494827 263.75562714 -186.77352641 265.02867547 -190.625 266.3125 C-192.0514314 266.42572825 -193.4822249 266.48845476 -194.9128418 266.51782227 C-195.77350754 266.53776749 -196.63417328 266.55771271 -197.5209198 266.57826233 C-198.90855278 266.60333107 -198.90855278 266.60333107 -200.32421875 266.62890625 C-201.74949638 266.6600779 -201.74949638 266.6600779 -203.2035675 266.69187927 C-206.23980456 266.75728052 -209.27612831 266.81621604 -212.3125 266.875 C-214.37045169 266.91819417 -216.42839459 266.96180876 -218.48632812 267.00585938 C-223.53246316 267.11295231 -228.57868543 267.21424646 -233.625 267.3125 C-233.84130393 275.60415051 -233.30407237 283.50012819 -232 291.6875 C-231.82178711 292.81381836 -231.64357422 293.94013672 -231.45996094 295.10058594 C-222.143747 351.1082139 -191.6165574 404.32605816 -146.625 439.3125 C-145.63113281 440.11171875 -144.63726562 440.9109375 -143.61328125 441.734375 C-107.07761985 470.87984266 -57.77441127 491.03051134 -10.625 490.3125 C-10.61041748 489.03608643 -10.59583496 487.75967285 -10.58081055 486.44458008 C-10.5227646 481.70129621 -10.44553172 476.95848393 -10.36254883 472.21557617 C-10.32932917 470.16422184 -10.30128803 468.11277675 -10.27856445 466.0612793 C-10.2449643 463.10947051 -10.19264524 460.15849114 -10.13671875 457.20703125 C-10.13032883 456.29226517 -10.1239389 455.37749908 -10.11735535 454.43501282 C-10.00641835 449.61223094 -9.82109621 446.18637033 -6.625 442.3125 C-2.93606884 439.85321256 0.09141421 439.61944421 4.375 440.3125 C7.81812714 442.4369827 9.09117547 443.46102641 10.375 447.3125 C10.48822825 448.7389314 10.55095476 450.1697249 10.58032227 451.6003418 C10.60026749 452.46100754 10.62021271 453.32167328 10.64076233 454.2084198 C10.66583107 455.59605278 10.66583107 455.59605278 10.69140625 457.01171875 C10.71218735 457.96190384 10.73296844 458.91208893 10.75437927 459.8910675 C10.81978052 462.92730456 10.87871604 465.96362831 10.9375 469 C10.98069417 471.05795169 11.02430876 473.11589459 11.06835938 475.17382812 C11.17545231 480.21996316 11.27674646 485.26618543 11.375 490.3125 C19.66665051 490.52880393 27.56262819 489.99157237 35.75 488.6875 C37.43947754 488.42018066 37.43947754 488.42018066 39.16308594 488.14746094 C95.1707139 478.831247 148.38855816 448.3040574 183.375 403.3125 C184.17421875 402.31863281 184.9734375 401.32476562 185.796875 400.30078125 C214.94234266 363.76511985 235.09301134 314.46191127 234.375 267.3125 C233.09858643 267.29791748 231.82217285 267.28333496 230.50708008 267.26831055 C225.76379621 267.2102646 221.02098393 267.13303172 216.27807617 267.05004883 C214.22672184 267.01682917 212.17527675 266.98878803 210.1237793 266.96606445 C207.17197051 266.9324643 204.22099114 266.88014524 201.26953125 266.82421875 C200.35476517 266.81782883 199.43999908 266.8114389 198.49751282 266.80485535 C193.67473094 266.69391835 190.24887033 266.50859621 186.375 263.3125 C183.91571256 259.62356884 183.68194421 256.59608579 184.375 252.3125 C186.4994827 248.86937286 187.52352641 247.59632453 191.375 246.3125 C192.8014314 246.19927175 194.2322249 246.13654524 195.6628418 246.10717773 C196.52350754 246.08723251 197.38417328 246.06728729 198.2709198 246.04673767 C199.65855278 246.02166893 199.65855278 246.02166893 201.07421875 245.99609375 C202.02440384 245.97531265 202.97458893 245.95453156 203.9535675 245.93312073 C206.98980456 245.86771948 210.02612831 245.80878396 213.0625 245.75 C215.12045169 245.70680583 217.17839459 245.66319124 219.23632812 245.61914062 C224.28246316 245.51204769 229.32868543 245.41075354 234.375 245.3125 C234.59130393 237.02084949 234.05407237 229.12487181 232.75 220.9375 C232.48268066 219.24802246 232.48268066 219.24802246 232.20996094 217.52441406 C222.86987879 161.37329416 191.91241592 107.05174819 146.375 72.3125 C145.83327148 71.89436035 145.29154297 71.4762207 144.73339844 71.04541016 C107.31721034 42.28551908 59.16059655 21.58480056 11.375 22.3125 C11.36041748 23.58891357 11.34583496 24.86532715 11.33081055 26.18041992 C11.2727646 30.92370379 11.19553172 35.66651607 11.11254883 40.40942383 C11.07932917 42.46077816 11.05128803 44.51222325 11.02856445 46.5637207 C10.9949643 49.51552949 10.94264524 52.46650886 10.88671875 55.41796875 C10.88032883 56.33273483 10.8739389 57.24750092 10.86735535 58.18998718 C10.75641835 63.01276906 10.57109621 66.43862967 7.375 70.3125 C3.68606884 72.77178744 0.65858579 73.00555579 -3.625 72.3125 C-7.06812714 70.1880173 -8.34117547 69.16397359 -9.625 65.3125 C-9.73822825 63.8860686 -9.80095476 62.4552751 -9.83032227 61.0246582 C-9.85026749 60.16399246 -9.87021271 59.30332672 -9.89076233 58.4165802 C-9.91583107 57.02894722 -9.91583107 57.02894722 -9.94140625 55.61328125 C-9.96218735 54.66309616 -9.98296844 53.71291107 -10.00437927 52.7339325 C-10.06978052 49.69769544 -10.12871604 46.66137169 -10.1875 43.625 C-10.23069417 41.56704831 -10.27430876 39.50910541 -10.31835938 37.45117188 C-10.42545231 32.40503684 -10.52674646 27.35881457 -10.625 22.3125 C-18.91665051 22.09619607 -26.81262819 22.63342763 -35 23.9375 Z " fill="#000000" transform="translate(255.625,-0.3125)"/>
<path d="M0 0 C2.4375 1.5625 2.4375 1.5625 4 4 C5.21287031 9.97231046 4.80205271 14.15210264 2.671875 19.88671875 C2.40179626 20.6528801 2.13171753 21.41904144 1.85345459 22.2084198 C0.92463196 24.81431541 -0.03415934 27.40760591 -1 30 C-1.34587158 30.93459045 -1.69174316 31.86918091 -2.0480957 32.83209229 C-4.45091744 39.30344382 -6.90265889 45.7555728 -9.36917114 52.20288086 C-11.54339121 57.88650075 -13.70746522 63.57398132 -15.87217903 69.26122665 C-16.64311652 71.28633701 -17.414495 73.31127902 -18.18589783 75.33621216 C-22.06875991 85.53241352 -25.92524271 95.73841669 -29.76953125 105.94921875 C-30.05286442 106.7017222 -30.33619759 107.45422565 -30.62811661 108.22953224 C-33.14094423 114.90398956 -35.65229764 121.57900105 -38.16223145 128.25454712 C-38.42151617 128.94407125 -38.6808009 129.63359537 -38.94794273 130.34401417 C-39.46691657 131.72414901 -39.98581861 133.10431086 -40.50464821 134.48449993 C-41.78114743 137.87879243 -43.06054495 141.27194423 -44.34591675 144.66288757 C-44.8571521 146.01220872 -45.36831119 147.36155877 -45.87939453 148.7109375 C-46.13294897 149.38028729 -46.38650341 150.04963709 -46.64774132 150.73927021 C-48.29406754 155.09745427 -49.90736791 159.46672932 -51.50298786 163.84371948 C-52.62406889 166.91096907 -53.75970634 169.9727245 -54.8973217 173.03387451 C-55.43069284 174.47972834 -55.95774025 175.92793533 -56.47754097 177.37872314 C-63.04457327 195.68862796 -74.01568657 211.58149947 -91.90551758 220.43847656 C-106.00275108 226.66998612 -120.48358914 231.94212949 -134.9152565 237.33736801 C-138.76593436 238.77805182 -142.61471853 240.22377615 -146.46362305 241.66918945 C-151.15083858 243.42910631 -155.83820019 245.18862834 -160.52638245 246.94596863 C-173.37778237 251.76325261 -186.21935794 256.60612682 -199.05764771 261.45825195 C-202.28640937 262.67764645 -205.51597112 263.89489519 -208.74584961 265.11132812 C-217.81730522 268.52831961 -226.88636852 271.95038142 -235.93791199 275.41984558 C-239.669042 276.8488228 -243.40306837 278.27012756 -247.13754272 279.69033813 C-248.84883623 280.3435303 -250.55871714 281.00043825 -252.26699829 281.66146851 C-254.58592934 282.55862057 -256.90944289 283.44275835 -259.234375 284.32421875 C-259.89432968 284.58356201 -260.55428436 284.84290527 -261.23423767 285.11010742 C-267.19724265 287.34417148 -273.26966501 288.89356418 -279.4375 286.875 C-282.49561178 284.63735723 -283.27357475 283.71284018 -284 280 C-283.79754115 273.85179055 -282.38348479 268.45417116 -280.17578125 262.75390625 C-279.88266556 261.97197403 -279.58954987 261.19004181 -279.28755188 260.38441467 C-278.30579576 257.7732429 -277.30916322 255.1680146 -276.3125 252.5625 C-275.59529445 250.66423839 -274.87901307 248.76562739 -274.16357422 246.86669922 C-272.20095969 241.66593081 -270.22514121 236.47027048 -268.246521 231.27557373 C-266.1437255 225.74990533 -264.0509592 220.22043965 -261.95703125 214.69140625 C-259.26749754 207.59110258 -256.57532699 200.49183143 -253.87402344 193.39599609 C-248.85602917 180.20884767 -243.87368042 167.00939655 -238.94555664 153.78836823 C-237.18499594 149.06778003 -235.4197077 144.34895658 -233.65476608 139.63000488 C-231.94835674 135.06541239 -230.25017657 130.49786658 -228.557971 125.92799091 C-227.49582636 123.06575438 -226.42579083 120.20651242 -225.35377693 117.34795952 C-224.8610317 116.02913748 -224.3714839 114.709115 -223.88561821 113.387743 C-215.65062581 91.00736932 -204.06195481 74.38531107 -182 64 C-179.50868185 62.99117404 -177.02957711 62.02409014 -174.5078125 61.1015625 C-173.79082687 60.83479706 -173.07384125 60.56803162 -172.33512878 60.29318237 C-170.76607776 59.70977187 -169.19630042 59.12831184 -167.62588501 58.54858398 C-163.15962409 56.89918106 -158.69939114 55.23358562 -154.23828125 53.5703125 C-153.2679747 53.20895203 -152.29766815 52.84759155 -151.29795837 52.47528076 C-140.16319588 48.32417969 -129.05538797 44.10236546 -117.94711304 39.88101196 C-111.79885833 37.54491367 -105.64944713 35.21186348 -99.5 32.87890625 C-98.87626684 32.64227201 -98.25253368 32.40563778 -97.60989952 32.16183281 C-84.03257446 27.01100739 -70.45483949 21.86126451 -56.87092876 16.72782707 C-53.54201545 15.46978616 -50.21346051 14.21082026 -46.88589478 12.94921875 C-6.89261017 -2.21083722 -6.89261017 -2.21083722 0 0 Z M-34.36328125 31.68359375 C-35.124664 31.96982605 -35.88604675 32.25605835 -36.67050171 32.55096436 C-39.21903483 33.50998912 -41.76575304 34.47374297 -44.3125 35.4375 C-46.12269977 36.11982077 -47.93300456 36.80186294 -49.7434082 37.48364258 C-54.5393111 39.29073634 -59.3336536 41.1019333 -64.12756348 42.91430664 C-67.79410641 44.30014799 -71.46132829 45.68418679 -75.12857056 47.06817627 C-81.49650866 49.47139374 -87.86409096 51.87554014 -94.22998047 54.28417969 C-103.65584669 57.85031655 -113.08412822 61.40976939 -122.5188446 64.95243835 C-127.31992408 66.75535387 -132.12012972 68.56059012 -136.9203186 70.36587524 C-139.23545954 71.23581831 -141.55102105 72.10464308 -143.86703491 72.97225952 C-155.69041737 77.40194197 -167.47382167 81.83644614 -179 87 C-177.5735422 90.2586636 -175.83295838 92.4024854 -173.3046875 94.890625 C-172.58925781 95.59960938 -171.87382812 96.30859375 -171.13671875 97.0390625 C-170.39035156 97.76867187 -169.64398438 98.49828125 -168.875 99.25 C-168.12089844 99.99507813 -167.36679688 100.74015625 -166.58984375 101.5078125 C-164.73099228 103.3431342 -162.86762995 105.1736191 -161 107 C-160.32453125 106.79503906 -159.6490625 106.59007812 -158.953125 106.37890625 C-158.06109375 106.10949219 -157.1690625 105.84007812 -156.25 105.5625 C-155.36828125 105.29566406 -154.4865625 105.02882813 -153.578125 104.75390625 C-142.31326425 101.45978788 -131.042889 102.26580154 -120.375 107.21875 C-108.84737333 113.54488659 -103.27461339 122.63386715 -99.38671875 134.94140625 C-97.57658029 144.57719382 -99.02443794 153.92955965 -102.78271484 162.85986328 C-103.2522176 165.13788851 -103.2522176 165.13788851 -101.49291992 167.10644531 C-100.37300659 168.20617676 -100.37300659 168.20617676 -99.23046875 169.328125 C-98.42416016 170.12734375 -97.61785156 170.9265625 -96.78710938 171.75 C-95.92923828 172.575 -95.07136719 173.4 -94.1875 174.25 C-93.34123047 175.09046875 -92.49496094 175.9309375 -91.62304688 176.796875 C-87.90339301 181.13724934 -87.90339301 181.13724934 -83 183 C-78.16530303 172.1632911 -73.96014519 161.12613981 -69.82785034 150.00601196 C-68.2521038 145.76591404 -66.66872857 141.52867684 -65.08583069 137.29124451 C-64.26591869 135.0961996 -63.44637111 132.90101853 -62.62718201 130.70570374 C-58.93612615 120.81681055 -55.21354335 110.94000211 -51.47937012 101.06732178 C-50.4403476 98.32002937 -49.40220294 95.57240664 -48.36425781 92.82470703 C-45.04417426 84.03775782 -41.71777311 75.25325331 -38.38072205 66.47273254 C-36.78288529 62.26732783 -35.1874712 58.06100609 -33.59231567 53.85458374 C-32.82667894 51.83769819 -32.0598263 49.82127377 -31.29171753 47.80532837 C-30.2319009 45.02366955 -29.1760664 42.24053008 -28.12109375 39.45703125 C-27.80325928 38.62602905 -27.4854248 37.79502686 -27.15795898 36.93884277 C-25.57520468 33.078359 -25.57520468 33.078359 -25 29 C-28.31735517 29 -31.29349104 30.51764672 -34.36328125 31.68359375 Z M-196 104 C-199.98356884 113.04223612 -203.64068565 122.15541563 -207.0345459 131.43621826 C-208.43221567 135.25628901 -209.84379544 139.07122668 -211.25390625 142.88671875 C-211.55400604 143.69945251 -211.85410583 144.51218628 -212.16329956 145.34954834 C-215.80897353 155.21016213 -219.52916009 165.04255957 -223.25 174.875 C-223.6027298 175.80740509 -223.95545959 176.73981018 -224.31887817 177.70046997 C-225.76414978 181.52086441 -227.20961987 185.34118355 -228.65562439 189.16130066 C-231.33654156 196.24418785 -234.01303438 203.32873691 -236.6875 210.4140625 C-237.45930897 212.45849644 -238.23111885 214.50293004 -239.00292969 216.54736328 C-240.11201735 219.48527079 -241.22102265 222.42320921 -242.32971191 225.36126709 C-243.34963967 228.06390374 -244.37008975 230.76634269 -245.390625 233.46875 C-245.70606262 234.30503937 -246.02150024 235.14132874 -246.34649658 236.00296021 C-247.7449715 239.7052444 -249.15167721 243.40353681 -250.59179688 247.08984375 C-251.05134766 248.26675781 -251.51089844 249.44367188 -251.984375 250.65625 C-252.57557129 252.15381836 -252.57557129 252.15381836 -253.17871094 253.68164062 C-254.11130688 255.90427812 -254.11130688 255.90427812 -254 258 C-245.81619286 255.71428018 -237.90768691 252.80675851 -229.96875 249.79296875 C-228.59386812 249.27388901 -227.21887529 248.75510304 -225.84378052 248.23658752 C-222.15840815 246.84592852 -218.4746409 245.45106487 -214.79120636 244.05528259 C-210.94027452 242.59676202 -207.08796164 241.14189758 -203.23583984 239.68652344 C-196.13380426 237.00257425 -189.03318127 234.3149093 -181.93318367 231.62557411 C-176.73111193 229.65523061 -171.52841022 227.68656084 -166.32519531 225.71923828 C-159.66479103 223.20091658 -153.0050106 220.68095356 -146.34594727 218.15908813 C-143.89179893 217.22972498 -141.4375371 216.30066148 -138.9831543 215.37191772 C-119.21816725 208.33511275 -119.21816725 208.33511275 -100 200 C-101.4264578 196.7413364 -103.16704162 194.5975146 -105.6953125 192.109375 C-106.41074219 191.40039062 -107.12617188 190.69140625 -107.86328125 189.9609375 C-108.60964844 189.23132813 -109.35601562 188.50171875 -110.125 187.75 C-110.87910156 187.00492187 -111.63320313 186.25984375 -112.41015625 185.4921875 C-114.26900772 183.6568658 -116.13237005 181.8263809 -118 180 C-118.74765625 180.27714844 -119.4953125 180.55429687 -120.265625 180.83984375 C-121.25046875 181.20207031 -122.2353125 181.56429687 -123.25 181.9375 C-124.22453125 182.29714844 -125.1990625 182.65679687 -126.203125 183.02734375 C-137.27138331 186.87650062 -148.29751637 185.47558406 -159 181 C-169.82289395 175.44051952 -176.34883126 166.68838934 -180.25 155.375 C-182.85954304 143.43222645 -180.41681789 133.02609954 -176 122 C-178.95025726 118.99196428 -181.91149669 115.9949821 -184.875 113 C-185.71675781 112.14148438 -186.55851562 111.28296875 -187.42578125 110.3984375 C-188.23144531 109.58632812 -189.03710938 108.77421875 -189.8671875 107.9375 C-190.98262939 106.80634766 -190.98262939 106.80634766 -192.12060547 105.65234375 C-193.83325987 103.77990509 -193.83325987 103.77990509 -196 104 Z M-154.79296875 129.94140625 C-159.60158968 136.14349927 -160.80024766 141.1946859 -160 149 C-158.15431724 155.68913052 -153.84305037 159.53256354 -148 163 C-142.34165621 164.8861146 -136.26345061 164.91147069 -130.75 162.5 C-125.51275308 159.53612193 -121.8861146 154.65834379 -120 149 C-119.26811895 142.24509783 -119.75610524 136.49002453 -124 131 C-129.76410269 125.67661341 -134.52424678 123.60482782 -142.37109375 123.73046875 C-147.54158687 124.26057874 -151.26658488 126.12307775 -154.79296875 129.94140625 Z " fill="#000000" transform="translate(396,112)"/>
</svg>
