<?xml version="1.0" encoding="UTF-8"?>
<svg version="1.1" xmlns="http://www.w3.org/2000/svg" width="512" height="512">
<path d="M0 0 C2.3388026 -0.00456815 4.67760386 -0.00987559 7.0164032 -0.0158844 C11.89551279 -0.02477804 16.77445833 -0.02243239 21.65356445 -0.01245117 C27.89547994 -0.00092362 34.13683286 -0.02125046 40.37867451 -0.05036831 C45.19918893 -0.06873102 50.01956825 -0.06843838 54.84010887 -0.06273079 C57.14173361 -0.06257781 59.44336764 -0.0686024 61.74495888 -0.08102226 C64.96094659 -0.09594394 68.17589009 -0.08524831 71.3918457 -0.06811523 C72.3338382 -0.0777832 73.27583069 -0.08745117 74.24636841 -0.09741211 C80.19418157 -0.03125341 84.90912812 0.9277223 89.82421875 4.43359375 C93.99336532 9.67175226 95.37149299 13.75684797 94.82421875 20.43359375 C93.01429263 25.70598722 90.58969493 29.37880132 85.82421875 32.43359375 C83.06373555 33.35375482 81.42167057 33.56195751 78.57577515 33.57162476 C77.27649078 33.57980476 77.27649078 33.57980476 75.95095825 33.58815002 C75.00340668 33.58919235 74.0558551 33.59023468 73.07958984 33.59130859 C71.57906067 33.59892967 71.57906067 33.59892967 70.04821777 33.60670471 C67.87273411 33.61741425 65.69723938 33.62603214 63.52173996 33.63282394 C60.07446287 33.64461055 56.62731119 33.66406461 53.18008423 33.6859436 C43.37742307 33.74755577 33.57477362 33.8015401 23.77197266 33.83496094 C17.77727188 33.8559497 11.78279794 33.89129104 5.78822708 33.93571854 C3.50700177 33.94984965 1.22573631 33.95859442 -1.05553055 33.96177292 C-4.25552199 33.9667019 -7.45491589 33.98991314 -10.65478516 34.01708984 C-11.59019135 34.01408371 -12.52559753 34.01107758 -13.48934937 34.00798035 C-21.79888766 34.11235891 -29.76134754 35.87441786 -36.17578125 41.43359375 C-40.91197456 47.99311031 -43.30233899 53.45243609 -43.29882908 61.57787037 C-43.30082013 62.59801033 -43.30281118 63.61815029 -43.30486256 64.66920358 C-43.30194972 65.78301438 -43.29903688 66.89682518 -43.29603577 68.04438782 C-43.2973174 69.82714128 -43.2973174 69.82714128 -43.29862493 71.64590997 C-43.29998712 74.9410918 -43.29686232 78.23621423 -43.29184687 81.53138888 C-43.28752818 85.08620809 -43.28898981 88.64102546 -43.28974915 92.19584656 C-43.29027348 98.35358935 -43.28713612 104.51132154 -43.28151131 110.66906166 C-43.27338407 119.57211834 -43.27077983 128.47516989 -43.26952332 137.37822988 C-43.26733473 151.82287556 -43.26067985 166.26751559 -43.2512207 180.7121582 C-43.24204161 194.74373344 -43.2349632 208.77530714 -43.23071289 222.80688477 C-43.23045017 223.67179987 -43.23018744 224.53671497 -43.22991676 225.42783961 C-43.22861172 229.7668671 -43.22734801 234.10589459 -43.22610486 238.44492209 C-43.21573825 274.44114996 -43.19812516 310.43737142 -43.17578125 346.43359375 C-42.56053589 345.74942383 -41.94529053 345.06525391 -41.31140137 344.36035156 C-40.09861511 343.01215332 -40.09861511 343.01215332 -38.86132812 341.63671875 C-38.06045776 340.74629883 -37.2595874 339.85587891 -36.43444824 338.93847656 C-33.86433319 336.08819494 -31.27495415 333.25738653 -28.67578125 330.43359375 C-24.58478158 325.98212838 -20.52981654 321.49989784 -16.4921875 317 C-13.41522877 313.59095803 -10.31075845 310.20752179 -7.19360352 306.83520508 C-4.41957153 303.82583015 -1.75176885 300.74897824 0.88671875 297.62109375 C10.75986564 286.54634684 24.92918372 280.15992942 39.6328125 279.1796875 C56.59420168 278.53642559 71.56998741 282.85735974 84.51171875 294.18359375 C88.59132227 298.06180641 92.19418364 302.09683719 95.6171875 306.55859375 C98.34758929 310.11536493 101.17687811 313.58489229 104.01171875 317.05859375 C105.14081418 318.44646069 106.26971812 319.83448346 107.3984375 321.22265625 C107.9661084 321.92036133 108.5337793 322.61806641 109.11865234 323.33691406 C111.85538354 326.70122089 114.58971425 330.06747703 117.32421875 333.43359375 C118.40753982 334.76693705 119.49087317 336.10027037 120.57421875 337.43359375 C122.74088542 340.10026042 124.90755208 342.76692708 127.07421875 345.43359375 C127.61054932 346.09367432 128.14687988 346.75375488 128.69946289 347.43383789 C129.78205596 348.76629767 130.86457558 350.09881715 131.94702148 351.43139648 C134.66607953 354.77859007 137.3864329 358.12471508 140.109375 361.46875 C147.39492914 370.41960457 154.62878769 379.41013425 161.82421875 388.43359375 C166.52098726 386.98643445 169.50193275 384.2229675 172.94921875 380.87109375 C176.96219086 377.06263325 180.99821666 373.39058955 185.32421875 369.93359375 C189.48490644 366.60021261 193.38626681 363.08677291 197.26171875 359.43359375 C213.36956674 344.36511556 229.21509067 335.40839321 251.75 336.15625 C273.72338014 337.38520907 287.42323519 351.85129052 302.00616455 366.54037476 C303.80292442 368.35009668 305.60296402 370.15650141 307.40380859 371.9621582 C311.21346957 375.78312964 315.01911951 379.60808024 318.82421875 383.43359375 C323.26493077 387.89793915 327.70728889 392.36062172 332.15383911 396.81915283 C333.92745031 398.59924575 335.69802791 400.38231886 337.46850586 402.16552734 C338.54786753 403.24851872 339.62736826 404.33137152 340.70703125 405.4140625 C341.19842087 405.91061844 341.68981049 406.40717438 342.1960907 406.91877747 C344.7626422 409.50390249 344.7626422 409.50390249 347.82421875 411.43359375 C348.81507393 405.65272093 348.97542304 400.04543205 348.98193359 394.18725586 C348.98701431 393.18150009 348.99209503 392.17574432 348.99732971 391.13951111 C349.00799327 388.96518244 349.01662903 386.79084307 349.02344894 384.61649895 C349.03528348 381.17392703 349.05474565 377.73147798 349.0765686 374.28895569 C349.13804907 364.50444619 349.19228895 354.71995211 349.22558594 344.93530273 C349.24652491 338.94248724 349.28181416 332.94990087 349.32634354 326.95721626 C349.34050067 324.67630265 349.34922532 322.39534857 349.35239792 320.11439323 C349.35730425 316.92619669 349.38045324 313.73860983 349.40771484 310.55053711 C349.40470871 309.61062927 349.40170258 308.67072144 349.39860535 307.70233154 C349.46431738 302.52969346 349.93202037 298.90506856 352.82421875 294.43359375 C356.92451161 290.54910578 360.5337891 288.69288767 366.13671875 288.05859375 C370.72542035 288.52524137 374.06523699 289.76144802 377.82421875 292.43359375 C381.24689332 296.73387719 382.94052684 300.23564421 382.97138977 305.71086121 C382.98212273 307.02021385 382.98212273 307.02021385 382.99307251 308.35601807 C382.99576141 309.3112738 382.99845032 310.26652954 383.0012207 311.25073242 C383.0077919 312.2593483 383.0143631 313.26796417 383.02113342 314.30714417 C383.04088721 317.65528438 383.05253968 321.00337948 383.0625 324.3515625 C383.06861329 326.07165748 383.06861329 326.07165748 383.07485008 327.82650185 C383.09572929 333.90736333 383.11001756 339.9882022 383.11938477 346.0690918 C383.13039471 352.31718291 383.16472649 358.56491252 383.20455647 364.8128767 C383.23086365 369.6422842 383.23908954 374.47160788 383.24266624 379.3010807 C383.24750346 381.60169196 383.25903439 383.90230021 383.27770424 386.20284081 C383.44028333 407.5818754 381.4847548 427.16190589 365.98046875 443.44140625 C351.46008273 456.85698029 334.24583898 460.91251881 314.92936707 460.8212738 C313.46936696 460.82545642 312.0093701 460.83093899 310.54937917 460.83759362 C306.57341742 460.85194549 302.59766476 460.84783594 298.62169206 460.8404268 C294.31957814 460.83567177 290.01750795 460.84822556 285.71540833 460.85844421 C277.30095 460.87559238 268.88656647 460.87648046 260.47209521 460.87123131 C253.62852263 460.86718071 246.78497207 460.86864372 239.94140053 460.87397957 C238.96530358 460.87472799 237.98920664 460.87547641 236.983531 460.87624751 C235.00022464 460.87777908 233.01691828 460.87931743 231.03361193 460.88086248 C212.45711901 460.89457328 193.88066826 460.88915997 175.30417631 460.87767727 C158.33467138 460.86774783 141.36527554 460.88068311 124.39578744 460.90461146 C106.94337577 460.92903408 89.49101484 460.93860247 72.03858644 460.93195873 C62.25166133 460.92847336 52.46482007 460.9306534 42.67790794 460.94820976 C34.34604449 460.9629714 26.01432391 460.96351567 17.68246313 460.94613885 C13.43736758 460.93765873 9.19252682 460.93540553 4.94744492 460.95079041 C1.05058676 460.96473758 -2.84580073 460.95974754 -6.74263235 460.94055117 C-8.14157575 460.93682127 -9.54055778 460.93962473 -10.93946645 460.95016282 C-29.24210352 461.0780773 -46.62947576 456.49852755 -60.18359375 443.58984375 C-73.59916779 429.06945773 -77.65470631 411.85521398 -77.5634613 392.53874207 C-77.56764392 391.07874196 -77.57312649 389.6187451 -77.57978112 388.15875417 C-77.59413299 384.18279242 -77.59002344 380.20703976 -77.5826143 376.23106706 C-77.57785927 371.92895314 -77.59041306 367.62688295 -77.60063171 363.32478333 C-77.61777988 354.910325 -77.61866796 346.49594147 -77.61341881 338.08147021 C-77.60936821 331.23789763 -77.61083122 324.39434707 -77.61616707 317.55077553 C-77.61691549 316.57467858 -77.61766391 315.59858164 -77.61843501 314.592906 C-77.61996658 312.60959964 -77.62150493 310.62629328 -77.62304998 308.64298693 C-77.63676078 290.06649401 -77.63134747 271.49004326 -77.61986477 252.91355131 C-77.60993533 235.94404638 -77.62287061 218.97465054 -77.64679896 202.00516244 C-77.67122158 184.55275077 -77.68078997 167.10038984 -77.67414623 149.64796144 C-77.67066086 139.86103633 -77.6728409 130.07419507 -77.69039726 120.28728294 C-77.7051589 111.95541949 -77.70570317 103.62369891 -77.68832635 95.29183813 C-77.67984623 91.04674258 -77.67759303 86.80190182 -77.69297791 82.55681992 C-77.70692508 78.65996176 -77.70193504 74.76357427 -77.68273867 70.86674265 C-77.67900877 69.46779925 -77.68181223 68.06881722 -77.69235032 66.66990855 C-77.82707505 47.39282628 -72.75875416 30.52276441 -59.17578125 16.43359375 C-41.48923218 1.04943568 -22.3251931 -0.03829206 0 0 Z M16.18652344 329.83349609 C14.25893014 332.0975546 12.26036044 334.29474285 10.26171875 336.49609375 C9.19244141 337.68912109 9.19244141 337.68912109 8.1015625 338.90625 C5.526121 341.76441578 2.92736111 344.60069636 0.32421875 347.43359375 C-3.02871242 351.08286546 -6.36576482 354.74528973 -9.67578125 358.43359375 C-12.98579821 362.12189836 -16.32290085 365.78427496 -19.67578125 369.43359375 C-23.7817006 373.90303215 -27.86956937 378.38702219 -31.89453125 382.9296875 C-33.53812988 384.73370586 -35.23256908 386.49186583 -36.95703125 388.21875 C-42.64498959 393.51337521 -42.64498959 393.51337521 -44.98828125 400.55859375 C-43.20740661 409.05199587 -41.09998908 416.8398144 -33.8046875 422.1640625 C-27.04291607 426.39393735 -22.07257985 427.55971026 -14.08268738 427.55384827 C-13.3801278 427.55470269 -12.67756822 427.55555712 -11.95371896 427.55643743 C-9.6060827 427.55808092 -7.25851832 427.55258942 -4.91088867 427.54711914 C-3.22544354 427.546837 -1.53999828 427.54699553 0.14544678 427.54756165 C4.71732971 427.54784857 9.28918641 427.5419688 13.86106324 427.53498769 C18.64034025 427.52873667 23.41961785 427.52814896 28.19889832 427.52696228 C37.24751725 427.52385413 46.2961241 427.51564768 55.34473771 427.50561279 C65.64695346 427.49443565 75.94916979 427.48893716 86.2513901 427.48391736 C107.44233973 427.47346465 128.63327848 427.45587517 149.82421875 427.43359375 C148.87876714 426.17061655 147.93298231 424.90788879 146.98706055 423.64526367 C146.46041306 422.9420549 145.93376556 422.23884613 145.39115906 421.514328 C139.09109844 413.14850076 132.53352929 405.00635071 125.73510742 397.04150391 C122.42072459 393.15510462 119.20515343 389.20444114 116.03125 385.203125 C113.25548562 381.71990917 110.4473031 378.26373547 107.63671875 374.80859375 C107.08129395 374.12563232 106.52586914 373.4426709 105.95361328 372.73901367 C104.81244088 371.33601596 103.67116385 369.93310334 102.52978516 368.53027344 C99.79305396 365.16596661 97.05872325 361.79971047 94.32421875 358.43359375 C93.24089768 357.10025045 92.15756433 355.76691713 91.07421875 354.43359375 C84.57421875 346.43359375 84.57421875 346.43359375 82.94824219 344.4309082 C81.87010064 343.1049497 80.79003656 341.78055199 79.70800781 340.45776367 C76.90201581 337.02224389 74.13980794 333.56169108 71.43359375 330.046875 C70.87091797 329.32693359 70.30824219 328.60699219 69.72851562 327.86523438 C68.66490464 326.5027575 67.61303809 325.13098578 66.57617188 323.74804688 C61.84258138 317.73309023 55.29119463 313.1744018 47.546875 312.125 C33.18001722 311.42880865 24.85359633 319.61433059 16.18652344 329.83349609 Z M214.56640625 388.97265625 C211.92405992 391.3439927 209.21727708 393.58612372 206.44921875 395.80859375 C198.50427217 402.2217089 191.02394403 409.19720901 183.82421875 416.43359375 C185.80493155 421.12667159 188.32008318 424.93330496 192.82421875 427.43359375 C201.07435587 429.45354508 209.9478309 428.74959189 218.37211347 428.54892707 C221.76711743 428.47977506 225.16224651 428.47367145 228.55784607 428.46064758 C234.9759178 428.42656827 241.39190823 428.3364618 247.80906671 428.2258032 C255.11960277 428.10249813 262.43024264 428.04228435 269.74156106 427.98715341 C284.77026983 427.87242703 299.79703536 427.6791723 314.82421875 427.43359375 C311.32984257 423.29258116 307.78256168 419.25932856 303.98730469 415.38793945 C303.07905945 414.46040359 302.17081421 413.53286774 301.23504639 412.57722473 C297.11184769 408.3914112 292.9796117 404.21458583 288.84033203 400.04467773 C286.66176453 397.84827381 284.49204499 395.64366351 282.32958984 393.43139648 C279.69714065 390.73842804 277.04995821 388.06078858 274.39191437 385.39308739 C273.39014146 384.3828226 272.39345942 383.36748022 271.40233612 382.34676552 C264.06009938 374.79712731 257.49183549 369.54887144 246.69921875 368.99609375 C232.93104206 369.72411553 224.19500738 380.10779685 214.56640625 388.97265625 Z " fill="#000000" transform="translate(103.17578125,25.56640625)"/>
<path d="M0 0 C3.02657887 2.69697529 5.94371833 5.49615044 8.859375 8.3125 C9.78492188 9.17488281 10.71046875 10.03726563 11.6640625 10.92578125 C39.47901201 37.51939445 54.66568908 76.46792624 56.10546875 114.546875 C57.05343287 159.05442817 40.28236931 198.32813895 9.859375 230.3125 C8.97185547 231.27929688 8.97185547 231.27929688 8.06640625 232.265625 C-15.07335965 256.71950106 -52.46807469 272.92009877 -85.91259766 274.48950195 C-108.47847176 274.84479203 -128.88045564 273.78451362 -150.578125 266.9375 C-151.43712402 266.66993896 -152.29612305 266.40237793 -153.18115234 266.12670898 C-159.54784883 263.95489196 -164.88678056 260.84025651 -168.578125 255.0625 C-169.75430643 249.31227967 -170.11761245 244.2664749 -167.453125 238.9375 C-163.91970773 234.92659391 -160.70953842 231.67063704 -155.18212891 231.1159668 C-149.40398049 231.0058148 -144.88926436 232.09271563 -139.515625 234.125 C-108.91763856 244.93603498 -76.10708423 242.99111425 -46.77734375 229.1171875 C-16.74939464 214.39005412 5.18350717 189.31040321 16.10009766 157.69873047 C25.9315503 126.80078253 23.46382794 93.10448435 8.91894531 64.07226562 C3.0382572 52.95597957 -4.53963131 43.43291427 -13.140625 34.3125 C-13.75292969 33.63574219 -14.36523438 32.95898438 -14.99609375 32.26171875 C-35.20907633 10.75579485 -65.87768664 -0.57993903 -94.8828125 -1.8515625 C-129.00659377 -2.77196392 -159.72445299 10.04452848 -184.73828125 33.015625 C-205.62493553 52.98530421 -219.54262749 82.21065035 -220.4765625 111.24609375 C-220.7072546 130.48657944 -218.98559587 147.30456725 -212.125 165.32421875 C-210.30946518 170.83566374 -210.38224893 175.1216358 -212.265625 180.5625 C-215.1154197 184.7421989 -218.24655471 187.68114324 -223.140625 189.3125 C-228.83325338 189.87634129 -233.29006638 189.61969906 -238.140625 186.3125 C-242.71542195 181.59907284 -244.72587636 177.02769966 -246.703125 170.8125 C-246.99904541 169.88453613 -247.29496582 168.95657227 -247.59985352 168.00048828 C-255.63825255 141.88613804 -258.15269681 111.03145465 -251.140625 84.3125 C-250.94194824 83.52987793 -250.74327148 82.74725586 -250.53857422 81.94091797 C-243.26427431 53.96074568 -229.73925276 31.41602239 -210.140625 10.3125 C-209.563125 9.66925781 -208.985625 9.02601562 -208.390625 8.36328125 C-155.33643046 -48.12522499 -57.60921091 -50.03853864 0 0 Z " fill="#000000" transform="translate(430.140625,61.6875)"/>
<path d="M0 0 C4.07157056 2.72019275 5.91973454 5.50483075 7.76171875 10.09375 C8.21155849 13.7776581 8.19923272 17.44004299 8.1940918 21.14794922 C8.20937927 22.80249367 8.20937927 22.80249367 8.22497559 24.49046326 C8.25510439 28.12650635 8.26437166 31.76228597 8.2734375 35.3984375 C8.29028421 37.92335892 8.30843443 40.44827196 8.32783508 42.97317505 C8.37048936 48.93345844 8.40002301 54.89371482 8.42315847 60.85409749 C8.45024351 67.64257994 8.49415287 74.43092132 8.53944719 81.21930289 C8.63220459 95.17737524 8.70392596 109.13549221 8.76171875 123.09375 C9.44037239 122.40510361 9.44037239 122.40510361 10.13273621 121.70254517 C14.8444365 116.92445896 19.56667606 112.15697803 24.29516602 107.39550781 C26.05830849 105.61728188 27.81874864 103.8363723 29.57641602 102.05273438 C32.1037713 99.48897832 34.64069732 96.93504008 37.1796875 94.3828125 C37.96321091 93.58380524 38.74673431 92.78479797 39.55400085 91.96157837 C40.29439102 91.22096161 41.03478119 90.48034485 41.79760742 89.71728516 C42.76690437 88.73799545 42.76690437 88.73799545 43.75578308 87.73892212 C48.22555197 84.0730323 52.74092915 83.65281487 58.328125 83.77734375 C63.23314324 84.41507485 65.92124357 87.1396971 69.07421875 90.71875 C71.42211271 94.02319336 71.9387242 95.82904986 72.01171875 99.84375 C72.05039062 101.10445312 72.05039062 101.10445312 72.08984375 102.390625 C71.27309251 109.11909947 66.96545663 113.32818638 62.38183594 117.87768555 C61.73915268 118.52723206 61.09646942 119.17677856 60.43431091 119.8460083 C58.31667691 121.98187995 56.18820754 124.10654633 54.05859375 126.23046875 C52.57712784 127.71649775 51.09603389 129.20289765 49.61529541 130.68965149 C46.51335435 133.80051763 43.40580973 136.90565163 40.29443359 140.00708008 C36.31358955 143.97643319 32.3488224 147.96141912 28.38834763 151.95108318 C25.33442176 155.02337954 22.27121243 158.08628617 19.20523834 161.14655495 C17.739784 162.6118562 16.27741985 164.0802549 14.81826019 165.55182457 C12.77470582 167.61030275 10.71874731 169.65555823 8.65917969 171.69799805 C8.06256027 172.30428543 7.46594086 172.91057281 6.85124207 173.53523254 C2.18138304 178.12438652 -2.03407772 180.68594228 -8.67578125 181.53125 C-16.48554372 180.57215636 -21.78624307 176.13787787 -27.1574707 170.69213867 C-27.79755569 170.05906296 -28.43764069 169.42598724 -29.09712219 168.77372742 C-31.1920517 166.69627976 -33.27215143 164.6046907 -35.3515625 162.51171875 C-36.81209458 161.05388404 -38.27321977 159.59664331 -39.73490906 158.13996887 C-42.78823231 155.09252714 -45.83424337 152.03800827 -48.87524414 148.97827148 C-52.766602 145.06410535 -56.67567084 141.16819985 -60.59039021 137.27741528 C-63.60798635 134.27429579 -66.61596283 131.26168625 -69.62114525 128.24614906 C-71.05867437 126.80595891 -72.49916068 125.36871403 -73.94268227 123.93453026 C-75.96033374 121.9270767 -77.96465499 119.90717506 -79.96606445 117.88354492 C-80.55985901 117.29784729 -81.15365356 116.71214966 -81.76544189 116.10870361 C-86.30948485 111.47111457 -88.83786814 107.23985299 -89.67578125 100.65625 C-88.96472946 94.86625688 -86.90478056 90.67895666 -82.67578125 86.65625 C-79.23106548 84.44809886 -76.44400197 83.89852526 -72.42578125 83.78125 C-71.59433594 83.74386719 -70.76289063 83.70648438 -69.90625 83.66796875 C-62.8681831 84.79117416 -57.76447195 91.30524306 -52.99609375 96.140625 C-52.22772186 96.91182678 -51.45934998 97.68302856 -50.66769409 98.4776001 C-48.22813231 100.92830682 -45.79563886 103.38589497 -43.36328125 105.84375 C-41.70488968 107.51217869 -40.04604039 109.18015255 -38.38671875 110.84765625 C-34.33192442 114.9244355 -30.28290223 119.00687879 -26.23828125 123.09375 C-26.2358929 122.52206274 -26.23350454 121.95037548 -26.23104382 121.36136436 C-26.17186127 107.43934336 -26.09610232 93.51749711 -26.00256634 79.59566307 C-25.95763523 72.86310773 -25.91821448 66.13060496 -25.8918457 59.39794922 C-25.86638444 52.90098263 -25.82546153 46.40422013 -25.77509499 39.90739822 C-25.7584058 37.42831966 -25.74690434 34.94920059 -25.74066734 32.4700737 C-25.73104891 28.99851671 -25.70301519 25.52756148 -25.6706543 22.05615234 C-25.67208939 21.03044128 -25.67352448 20.00473022 -25.67500305 18.94793701 C-25.58285342 11.96121881 -24.49729933 7.63514534 -19.73828125 2.28125 C-14.66400199 -2.15874435 -6.18970521 -2.50612846 0 0 Z " fill="#000000" transform="translate(339.23828125,80.90625)"/>
</svg>
