<?xml version="1.0" encoding="UTF-8"?>
<svg version="1.1" xmlns="http://www.w3.org/2000/svg" width="512" height="512">
<path d="M0 0 C1.41000217 -0.00599102 2.82000108 -0.01279788 4.22999573 -0.02035522 C8.04392973 -0.03795791 11.85777388 -0.04270799 15.67174459 -0.0439868 C18.05667437 -0.04541149 20.44158152 -0.04968696 22.82650566 -0.05498123 C31.15225544 -0.07345807 39.47794133 -0.08165423 47.80371094 -0.08007812 C55.55699381 -0.07887532 63.30999894 -0.10001083 71.0632115 -0.13156545 C77.72922193 -0.15772596 84.39514157 -0.16844562 91.06120294 -0.16716731 C95.03861842 -0.16665788 99.01578652 -0.17233115 102.99315071 -0.19352341 C106.73205155 -0.21290383 110.47046881 -0.21303207 114.20938683 -0.19849014 C116.23114746 -0.19540678 118.25290814 -0.21207721 120.27459717 -0.22937012 C122.08925224 -0.21678665 122.08925224 -0.21678665 123.94056702 -0.20394897 C124.98785005 -0.20503851 126.03513308 -0.20612804 127.11415195 -0.2072506 C133.04942402 0.78830558 136.99104897 4.94955953 141.11773682 9.07250977 C141.5869772 9.53863017 142.05621759 10.00475058 142.53967738 10.48499584 C144.09656475 12.03396358 145.64627322 13.58991155 147.19604492 15.14599609 C148.31641012 16.26364882 149.43719981 17.38087615 150.55838013 18.49771118 C153.59167253 21.52190991 156.61863346 24.55237176 159.64420414 27.58429337 C162.81398394 30.75914628 165.98865141 33.92910577 169.16253662 37.09985352 C174.48883239 42.42251454 179.81090567 47.74937027 185.13061523 53.07861328 C191.28104327 59.23993608 197.43865819 65.3940058 203.600034 71.54437923 C208.89300027 76.828272 214.18206216 82.11604923 219.46787524 87.40709782 C222.62364569 90.56598616 225.78075161 93.72350791 228.94138336 96.87753296 C231.91064567 99.84102114 234.87497874 102.80935307 237.83556747 105.78150558 C238.92307674 106.87166058 240.01229385 107.96011493 241.1033287 109.04674149 C242.59148178 110.52943465 244.07334562 112.01814255 245.55377197 113.50854492 C246.38481068 114.34033768 247.21584938 115.17213043 248.07207108 116.02912903 C251.96433827 120.40883558 252.37985988 123.90805159 252.37231445 129.62597656 C252.37903168 130.35819427 252.3857489 131.09041199 252.39266968 131.84481812 C252.41164336 134.26168635 252.41557353 136.67827679 252.41772461 139.09521484 C252.42415305 140.77906406 252.43088145 142.46291216 252.43789673 144.14675903 C252.44986795 147.67566517 252.45357772 151.20447343 252.45239258 154.73339844 C252.45218941 159.24835161 252.47948941 163.76267516 252.513937 168.27747917 C252.53620927 171.75541041 252.54023002 175.23319021 252.53917313 178.71118546 C252.54152867 180.37531834 252.55034966 182.03945543 252.56583786 183.70351791 C252.58550502 186.03488601 252.57965809 188.36489763 252.56762695 190.69628906 C252.57886597 191.37908936 252.59010498 192.06188965 252.60168457 192.76538086 C252.53709354 197.70802913 251.12648057 200.46111321 248.08178711 204.29052734 C244.26248539 207.91886398 241.19899705 208.60053193 236.08178711 208.79052734 C230.96457717 208.60053193 227.90108883 207.91886398 224.08178711 204.29052734 C219.03346027 198.66984096 219.56020701 193.18807743 219.69116211 185.89208984 C219.6968219 184.7019931 219.70248169 183.51189636 219.70831299 182.28573608 C219.73065259 178.49525248 219.78084748 174.7057239 219.83178711 170.91552734 C219.8518551 168.34132227 219.87010534 165.76710234 219.88647461 163.19287109 C219.93050966 156.89176556 219.99739906 150.5912147 220.08178711 144.29052734 C219.18135681 144.29940979 218.28092651 144.30829224 217.35321045 144.31744385 C208.82163766 144.39795955 200.2901945 144.4586784 191.75832748 144.49777603 C187.37314245 144.51855306 182.98827424 144.54668721 178.60327148 144.59228516 C174.36274399 144.63609926 170.12251911 144.65973856 165.88178253 144.67003632 C164.272822 144.67736447 162.66387595 144.69167263 161.05504608 144.71344757 C144.62314014 144.92677911 132.57097563 141.33342326 120.33178711 129.97802734 C109.00886747 118.01418772 107.63047946 104.83040696 107.78881836 89.12646484 C107.79442414 87.4816629 107.79868959 85.83685589 107.80168152 84.19204712 C107.81305307 79.8946513 107.84245254 75.59756699 107.87579346 71.30029297 C107.90666161 66.90254936 107.92022239 62.50475467 107.93530273 58.10693359 C107.96733087 49.50132301 108.01843226 40.89596409 108.08178711 32.29052734 C93.63411147 32.35117918 79.18661397 32.42895576 64.7391367 32.52624226 C58.03020872 32.57111871 51.32133287 32.61055187 44.61230469 32.63696289 C38.13476647 32.6630184 31.65746098 32.70343748 25.18006706 32.75371361 C22.7118412 32.77036697 20.2435751 32.78189075 17.77530098 32.78814125 C14.31154243 32.79779863 10.84837728 32.82587903 7.38476562 32.8581543 C5.86237778 32.85600166 5.86237778 32.85600166 4.30923462 32.85380554 C-2.82952824 32.94755383 -9.91922216 33.52222821 -15.35571289 38.54052734 C-19.4999589 45.83440032 -19.20432529 53.02525976 -19.1789093 61.22018433 C-19.18273485 62.52655196 -19.1865604 63.8329196 -19.19050187 65.17887414 C-19.20077178 68.79421714 -19.19860263 72.40946087 -19.19432127 76.02481198 C-19.19185222 79.92811222 -19.20087046 83.83138867 -19.20835876 87.73468018 C-19.22110284 95.3775691 -19.22289981 103.02042289 -19.2205585 110.66332065 C-19.21877484 116.87637225 -19.22052602 123.0894132 -19.22478294 129.30246353 C-19.22537813 130.18703219 -19.22597332 131.07160085 -19.22658655 131.98297463 C-19.22779831 133.78003231 -19.22901244 135.57708999 -19.23022892 137.37414767 C-19.24110337 154.22404122 -19.23894244 171.07391475 -19.23284408 187.92380942 C-19.22767515 203.33350862 -19.23892989 218.74314461 -19.2579423 234.1528313 C-19.27732132 249.98118605 -19.28557657 265.80951089 -19.28181905 281.63787758 C-19.27990708 290.52201234 -19.2823941 299.40609328 -19.29653358 308.29021835 C-19.30844918 315.85348765 -19.30985028 323.41667002 -19.29774342 330.97994052 C-19.29185595 334.83726821 -19.29075158 338.69443691 -19.30274582 342.551754 C-19.31560808 346.7369296 -19.30513706 350.92172705 -19.29243469 355.10690308 C-19.30349612 356.92807264 -19.30349612 356.92807264 -19.31478101 358.78603351 C-19.26623995 366.38584256 -19.04418838 373.9040539 -13.66821289 379.72802734 C-7.71204495 383.11221367 -1.90958882 383.58342226 4.75949097 383.55122375 C5.60850074 383.5550493 6.45751051 383.55887485 7.33224785 383.56281632 C10.16402659 383.57309703 12.99560069 383.56916356 15.82739258 383.56518555 C17.86305935 383.56953476 19.89872449 383.5747186 21.93438721 383.58067322 C27.45508056 383.59405217 32.9757054 383.59464309 38.4964118 383.59210992 C43.10868954 383.59103943 47.72095346 383.59592559 52.33322823 383.60071534 C63.21638469 383.61180678 74.09950664 383.61225001 84.98266602 383.60620117 C96.2019853 383.60016128 107.42117917 383.61247368 118.64047706 383.63377124 C128.28060227 383.65139674 137.9206876 383.65738708 147.56082833 383.6541335 C153.31506074 383.65232197 159.06920369 383.65494389 164.82342148 383.66884804 C170.23580418 383.68143707 175.64799164 383.67947198 181.0603714 383.66643715 C183.04326824 383.66407415 185.02617888 383.66679611 187.00905991 383.67506027 C189.72297028 383.6855529 192.43622853 383.67740695 195.15011597 383.66474915 C195.9284428 383.67212343 196.70676964 383.67949772 197.50868213 383.68709546 C204.0432362 383.62329865 210.59880088 382.58251464 215.51928711 378.04052734 C219.55795264 370.932476 219.36229413 363.99118488 219.35522461 356.00537109 C219.37550429 353.59455908 219.39635489 351.18375182 219.41772461 348.77294922 C219.44035824 344.99190235 219.45681331 341.21104326 219.46264648 337.42993164 C219.47216306 333.76723787 219.50591865 330.10537805 219.54272461 326.44287109 C219.53767914 325.31461411 219.53263367 324.18635712 219.5274353 323.02391052 C219.60549813 316.79645846 219.88550348 313.01339775 224.08178711 308.29052734 C227.90108883 304.66219071 230.96457717 303.98052276 236.08178711 303.79052734 C242.60086064 304.03257215 245.76034653 305.8158546 250.20483398 310.55371094 C253.57777665 315.78771732 252.65387038 322.46373824 252.61303711 328.45458984 C252.61573666 329.85216542 252.61962293 331.24973915 252.62463379 332.64730835 C252.63051889 335.57429921 252.62200652 338.50080064 252.60327148 341.42773438 C252.5806086 345.14626931 252.59352888 348.8636411 252.61756134 352.58213234 C252.63215585 355.47016839 252.62734961 358.35793815 252.61705017 361.24598312 C252.61314607 363.27301549 252.62513169 365.30005894 252.63757324 367.32705688 C252.48827549 382.25909764 247.86814535 393.27227341 237.64428711 404.10302734 C224.43067523 416.55656421 209.17860118 416.87858472 191.98022461 416.80810547 C189.75164331 416.81353274 187.5230656 416.82065878 185.29449463 416.8293457 C179.26970799 416.84750981 173.24519675 416.84054001 167.22040558 416.82782936 C160.89994086 416.81766585 154.5794989 416.82710433 148.2590332 416.83337402 C136.96844757 416.84110544 125.67800109 416.82871508 114.3874433 416.80833668 C104.1715639 416.79046814 93.95586636 416.79357302 83.73999023 416.81201172 C71.84740502 416.83346699 59.95493007 416.84135975 48.0623188 416.82956266 C41.77764651 416.82334314 35.4930992 416.82244971 29.20843506 416.83570862 C23.29852651 416.84730713 17.38895967 416.83916814 11.47908783 416.81613159 C9.31684688 416.81086588 7.15457692 416.8123214 4.99234772 416.82118225 C-13.0345298 416.88821674 -26.15956368 414.66372423 -39.73071289 401.85302734 C-49.89036563 391.0733019 -52.52624398 378.51837194 -52.43287659 364.03396606 C-52.43821334 362.63114758 -52.44528548 361.22833483 -52.45392364 359.82553279 C-52.47242879 356.00301347 -52.46628836 352.18088478 -52.45577061 348.35835004 C-52.4487438 344.22325164 -52.46480285 340.0882307 -52.47776794 335.95315552 C-52.49935561 327.86473658 -52.49929445 319.77645862 -52.4911424 311.68802036 C-52.48482973 305.11041892 -52.48599103 298.53285844 -52.49241447 291.95525742 C-52.49331613 291.01730259 -52.49421778 290.07934777 -52.49514676 289.11297008 C-52.49699806 287.20720871 -52.49886062 285.30144736 -52.50073432 283.39568602 C-52.51729475 265.54412189 -52.50860876 247.69263691 -52.49174874 229.84107755 C-52.47705547 213.52971626 -52.49167806 197.21853923 -52.52051891 180.90720166 C-52.54995229 164.13509003 -52.56087357 147.36306332 -52.55133671 130.590927 C-52.55031421 128.69176095 -52.5493196 126.79259488 -52.5483532 124.8934288 C-52.54787681 123.95914113 -52.54740042 123.02485347 -52.54690959 122.06225405 C-52.54475055 115.49832935 -52.55452238 108.93448554 -52.56912422 102.37057877 C-52.58669029 94.36285766 -52.58646917 86.35537131 -52.56377257 78.34765925 C-52.55266869 74.26681074 -52.54937954 70.18637518 -52.56807327 66.10554504 C-52.58500497 62.3609963 -52.57835827 58.61721659 -52.55385648 54.87271653 C-52.5467412 52.89532765 -52.56389752 50.91789588 -52.58226782 48.94057953 C-52.43404488 34.56425339 -47.78413011 23.34686715 -37.82055664 13.14208984 C-26.5179185 2.41754078 -15.11603283 -0.01044334 0 0 Z M140.08178711 56.29052734 C140.00716247 61.82231762 139.95296213 67.3538094 139.91699219 72.88598633 C139.90198378 74.76461904 139.88157059 76.64321718 139.85546875 78.52172852 C139.81873325 81.23511327 139.80198104 83.94803145 139.78881836 86.66162109 C139.7733345 87.4901207 139.75785065 88.3186203 139.74189758 89.17222595 C139.74016307 95.29717558 140.4002076 101.9366037 144.35700989 106.88548279 C150.44042876 112.42344525 157.76509572 112.58121508 165.51538086 112.48583984 C166.39331802 112.48300995 167.27125519 112.48018005 168.17579651 112.4772644 C170.95710356 112.46614333 173.73807874 112.44105406 176.51928711 112.41552734 C178.41446472 112.4054871 180.30964743 112.39636308 182.20483398 112.38818359 C186.83061128 112.36623049 191.45614309 112.33175694 196.08178711 112.29052734 C190.71284561 105.77162858 184.78409557 99.84695145 178.81225586 93.88818359 C177.72448886 92.79974199 176.63687026 91.71115205 175.5493927 90.62242126 C173.28422226 88.35578499 171.0172739 86.0909465 168.74902344 83.82739258 C165.83569862 80.91980547 162.9269414 78.00769647 160.01946545 75.09426212 C157.78144749 72.85264319 155.54106899 70.61339579 153.29995155 68.37487602 C152.22546213 67.30105505 151.15171881 66.22648699 150.07872581 65.15117073 C148.58759686 63.65751847 147.09332888 62.16708139 145.59814453 60.67749023 C144.74798264 59.82812393 143.89782074 58.97875763 143.02189636 58.10365295 C141.40259444 56.1767286 141.40259444 56.1767286 140.08178711 56.29052734 Z " fill="#000000" transform="translate(115.918212890625,47.70947265625)"/>
<path d="M0 0 C4.89737666 2.88389672 8.7176884 6.43163111 12.70800781 10.44921875 C13.67010666 11.40606064 13.67010666 11.40606064 14.65164185 12.38223267 C16.75717413 14.47900674 18.85535832 16.58295879 20.953125 18.6875 C22.41920241 20.1522294 23.88557654 21.61666186 25.35223389 23.08081055 C28.41842369 26.14405737 31.48098074 29.21087851 34.54101562 32.28027344 C38.46400808 36.21468002 42.39593784 40.14001295 46.330616 44.06272888 C49.35735839 47.08224762 52.37932527 50.10650949 55.3998642 53.13223267 C56.84808286 54.58178537 58.29778835 56.02985418 59.74900055 57.47640991 C61.77406827 59.49640201 63.79261991 61.52268836 65.80957031 63.55078125 C66.41010223 64.14726471 67.01063416 64.74374817 67.62936401 65.35830688 C72.25107245 70.02745656 74.28904393 73.11885298 74.375 79.875 C74.40335938 80.88304687 74.43171875 81.89109375 74.4609375 82.9296875 C73.46386497 89.57120449 68.1314321 94.15844683 63.55078125 98.70800781 C62.91288666 99.34940704 62.27499207 99.99080627 61.61776733 100.65164185 C59.52099326 102.75717413 57.41704121 104.85535832 55.3125 106.953125 C53.8477706 108.41920241 52.38333814 109.88557654 50.91918945 111.35223389 C47.85594263 114.41842369 44.78912149 117.48098074 41.71972656 120.54101562 C37.78531998 124.46400808 33.85998705 128.39593784 29.93727112 132.330616 C26.91775238 135.35735839 23.89349051 138.37932527 20.86776733 141.3998642 C19.41821463 142.84808286 17.97014582 144.29778835 16.52359009 145.74900055 C14.50359799 147.77406827 12.47731164 149.79261991 10.44921875 151.80957031 C9.85273529 152.41010223 9.25625183 153.01063416 8.64169312 153.62936401 C3.97254344 158.25107245 0.88114702 160.28904393 -5.875 160.375 C-11.08266907 160.27363418 -14.10580633 159.69948398 -18 156 C-22.41415841 151.35351746 -22.46758261 147.11206934 -22.53125 141 C-21.2425791 133.72279963 -14.99680782 128.73160516 -9.953125 123.7578125 C-9.18192322 122.98944061 -8.41072144 122.22106873 -7.6161499 121.42941284 C-5.16544318 118.98985106 -2.70785503 116.55735761 -0.25 114.125 C1.41842869 112.46660843 3.08640255 110.80775914 4.75390625 109.1484375 C8.8306855 105.09364317 12.91312879 101.04462098 17 97 C16.11393507 96.99853344 15.22787014 96.99706688 14.31495476 96.99555588 C-7.24289989 96.95850759 -28.80059707 96.89951911 -50.35832405 96.81609726 C-60.78348169 96.7762844 -71.2085636 96.74390331 -81.63378906 96.72900391 C-90.72020205 96.71599905 -99.80644855 96.68906419 -108.89276779 96.64538693 C-113.70413604 96.62274591 -118.51529876 96.6070909 -123.32672501 96.60811615 C-127.85597555 96.6088612 -132.3847713 96.59097283 -136.91390419 96.55883217 C-138.57552199 96.55031783 -140.23719071 96.54859366 -141.89882088 96.55419731 C-144.16998633 96.56083597 -146.43970416 96.54292227 -148.71072388 96.51898193 C-149.98095461 96.51529476 -151.25118534 96.51160759 -152.55990791 96.50780869 C-157.76575358 95.73934855 -160.81541608 93.24693045 -164.375 89.5 C-166.77303575 84.33499991 -166.75381535 79.5997712 -166 74 C-163.69018785 69.02501998 -160.72179756 66.67873939 -156 64 C-152.55990791 63.49219131 -152.55990791 63.49219131 -148.71072388 63.48101807 C-147.64335222 63.46976619 -147.64335222 63.46976619 -146.55441749 63.458287 C-144.18197401 63.43806801 -141.81049156 63.44610057 -139.43798828 63.45410156 C-137.73268186 63.44536335 -136.02738364 63.4348767 -134.32209778 63.42277527 C-129.70063434 63.3949249 -125.07943856 63.39151037 -120.45790339 63.39249516 C-115.62518481 63.38936523 -110.79258664 63.36374535 -105.95993042 63.34051514 C-96.81218748 63.29995773 -87.66451581 63.27961502 -78.51669681 63.26654124 C-68.10073059 63.25067034 -57.68488566 63.21225431 -47.2689898 63.17194796 C-25.84603321 63.08955254 -4.42308232 63.03545817 17 63 C16.5409024 62.54534363 16.08180481 62.09068726 15.60879517 61.62225342 C10.83374359 56.891431 6.06573247 52.15359734 1.30175781 47.41162109 C-0.47736713 45.64255687 -2.25828255 43.87529143 -4.04101562 42.10986328 C-6.60238335 39.57274013 -9.15725352 37.02922901 -11.7109375 34.484375 C-12.90944839 33.30134796 -12.90944839 33.30134796 -14.13217163 32.09442139 C-14.87278839 31.35395569 -15.61340515 30.61348999 -16.37646484 29.85058594 C-17.02932465 29.20216736 -17.68218445 28.55374878 -18.35482788 27.88568115 C-22.43517169 23.20882861 -22.42970868 18.93565861 -22.3125 12.9140625 C-21.74397844 7.61259899 -19.22134216 5.16027505 -15.5 1.625 C-10.44221514 -0.72325726 -5.48314207 -0.97097307 0 0 Z " fill="#000000" transform="translate(406,224)"/>
</svg>
