<?xml version="1.0" encoding="UTF-8"?>
<svg version="1.1" xmlns="http://www.w3.org/2000/svg" width="512" height="512">
<path d="M0 0 C1.36867296 -0.04260589 1.36867296 -0.04260589 2.76499587 -0.0860725 C8.92983209 -0.12806946 8.92983209 -0.12806946 12.13276768 2.20730877 C13.88317322 4.80772144 14.0506342 6.25903431 14.01911926 9.37901306 C14.01866608 10.88011627 14.01866608 10.88011627 14.01820374 12.4115448 C13.99755859 13.48458862 13.97691345 14.55763245 13.9556427 15.66319275 C13.94998291 16.76733521 13.94432312 17.87147766 13.93849182 19.00907898 C13.91610538 22.53485001 13.86590266 26.05960399 13.8150177 29.58506775 C13.79495573 31.97567807 13.77670444 34.36630432 13.7603302 36.75694275 C13.71623313 42.61666462 13.64929768 48.47579353 13.5650177 54.33506775 C14.24714828 54.3925267 14.92927887 54.44998566 15.63208008 54.50918579 C16.97789909 54.63122124 16.97789909 54.63122124 18.35090637 54.75572205 C19.68347725 54.87284798 19.68347725 54.87284798 21.04296875 54.99234009 C24.36680527 55.44402471 26.92946219 56.57181413 29.8775177 58.14756775 C30.84302551 58.64901306 31.80853333 59.15045837 32.80329895 59.667099 C41.39406816 64.85558337 46.43656747 72.26459695 49.74250793 81.6580658 C51.4329529 89.21514255 51.1519614 96.97871868 51.08650208 104.68907166 C51.0649171 107.72421305 51.08644956 110.75702633 51.1118927 113.792099 C51.10925185 115.73090628 51.1041319 117.66971212 51.0962677 119.60850525 C51.10436462 120.51063751 51.11246155 121.41276978 51.12080383 122.34223938 C51.10189087 123.60978561 51.10189087 123.60978561 51.08259583 124.90293884 C51.07941345 125.64031281 51.07623108 126.37768677 51.07295227 127.1374054 C50.32465231 130.37504811 48.89591317 131.98682114 46.5650177 134.33506775 C43.54060364 134.9026947 43.54060364 134.9026947 40.0493927 134.823349 C38.79900208 134.80723572 37.54861145 134.79112244 36.2603302 134.77452087 C34.95837708 134.73262634 33.65642395 134.69073181 32.3150177 134.64756775 C30.33888489 134.61372986 30.33888489 134.61372986 28.3228302 134.57920837 C25.06908366 134.52026369 21.81762099 134.43801828 18.5650177 134.33506775 C18.51440217 135.57506436 18.46378664 136.81506098 18.41163731 138.09263325 C17.20708644 167.60090646 16.00137647 197.10913207 14.79426033 226.61730044 C14.64532791 230.25800443 14.49640516 233.89870882 14.3474884 237.53941345 C14.31784457 238.26413956 14.28820073 238.98886566 14.25765859 239.73555317 C13.7791917 251.43357158 13.30150675 263.13162179 12.82411642 274.82968418 C12.33338315 286.85427176 11.84179649 298.87882423 11.34943575 310.90334529 C11.07327672 317.64833703 10.79749737 324.39334384 10.52270699 331.13839149 C10.26348562 337.50032406 10.00320217 343.86221232 9.74213982 350.2240696 C9.64703017 352.54621824 9.55229283 354.86838217 9.45797729 357.1905632 C9.17156511 364.23924158 8.87607481 371.28743232 8.5650177 378.33506775 C8.52464032 379.25983721 8.48426294 380.18460666 8.442662 381.13739944 C8.32558709 383.76463494 8.2015364 386.39143533 8.07476807 389.01821899 C8.04099125 389.78327879 8.00721443 390.54833858 7.97241408 391.33658201 C7.43647175 401.94392827 4.29825602 410.42105164 -3.1693573 418.12413025 C-7.30870249 421.84221465 -11.67559841 425.33506775 -17.4349823 425.33506775 C-17.41927185 426.05984314 -17.4035614 426.78461853 -17.38737488 427.53135681 C-17.32420087 430.88251124 -17.28573343 434.23353972 -17.2474823 437.58506775 C-17.20977722 439.29436462 -17.20977722 439.29436462 -17.17131042 441.03819275 C-17.06177623 453.89020481 -19.04930458 463.7240055 -28.0990448 473.0499115 C-34.32592466 478.86450936 -41.13422952 480.79399882 -49.54959106 480.7227478 C-50.32595132 480.72813334 -51.10231157 480.73351888 -51.9021979 480.73906761 C-54.48222022 480.75328081 -57.06172465 480.74626012 -59.64176941 480.73912048 C-61.50024831 480.74482752 -63.3587237 480.75179307 -65.2171936 480.75991821 C-70.25027225 480.77782751 -75.28317635 480.77668546 -80.31627727 480.77097583 C-84.5235038 480.76788086 -88.73069695 480.77397983 -92.93791872 480.78001457 C-102.86559783 480.79405078 -112.79319087 480.79250593 -122.72087097 480.78111267 C-132.95130826 480.76963117 -143.18148341 480.78370979 -153.41188616 480.81050915 C-162.20703853 480.83268326 -171.00210871 480.83929969 -179.79728705 480.83343273 C-185.04515809 480.83006621 -190.29286109 480.83245814 -195.54070854 480.84968376 C-200.47630196 480.86517814 -205.41150771 480.86116962 -210.34708595 480.84237862 C-212.15421348 480.8386997 -213.9613699 480.84178079 -215.76847076 480.8522644 C-228.26821084 480.91922129 -237.30469908 479.97459558 -246.7162323 471.104599 C-254.72667777 462.85748128 -255.79304268 452.11311077 -255.69865417 441.03819275 C-255.67351746 439.8986615 -255.64838074 438.75913025 -255.6224823 437.58506775 C-255.60894714 436.39913025 -255.59541199 435.21319275 -255.58146667 433.99131775 C-255.54655639 431.10540082 -255.49752769 428.22049511 -255.4349823 425.33506775 C-256.21365662 425.19407654 -256.99233093 425.05308533 -257.79460144 424.90782166 C-265.06224423 423.33131773 -271.40053155 417.39904403 -275.4349823 411.33506775 C-279.47345135 403.81471352 -280.56507942 397.04943225 -280.91227722 388.55943298 C-280.95167514 387.67174571 -280.99107306 386.78405844 -281.03166485 385.86947155 C-281.16340629 382.87768791 -281.28945006 379.88569203 -281.41545105 376.8936615 C-281.50948842 374.7259547 -281.60382673 372.55826094 -281.69844055 370.39057922 C-281.95718723 364.43553263 -282.21065447 358.48027145 -282.46303177 352.52495193 C-282.62228081 348.77730949 -282.78304227 345.0297351 -282.9443512 341.28218079 C-285.91314493 272.305624 -288.67100407 203.32007809 -291.4349823 134.33506775 C-292.67586609 134.37434387 -292.67586609 134.37434387 -293.94181824 134.41441345 C-297.68934648 134.51833606 -301.4365718 134.58338264 -305.1849823 134.64756775 C-306.48693542 134.68946228 -307.78888855 134.73135681 -309.1302948 134.77452087 C-310.38068542 134.79063416 -311.63107605 134.80674744 -312.9193573 134.823349 C-314.07145691 134.84953308 -315.22355652 134.87571716 -316.41056824 134.9026947 C-319.4349823 134.33506775 -319.4349823 134.33506775 -321.81046295 131.94190407 C-323.47722122 129.26728774 -323.93919976 127.99868114 -323.95256042 124.90293884 C-323.96516907 124.05790802 -323.97777771 123.2128772 -323.99076843 122.34223938 C-323.98267151 121.44010712 -323.97457458 120.53797485 -323.9662323 119.60850525 C-323.9700592 118.66504242 -323.97388611 117.72157959 -323.97782898 116.74952698 C-323.98054695 114.75410393 -323.97319381 112.75864519 -323.95646667 110.76329041 C-323.93519864 107.74081218 -323.95619773 104.72075001 -323.9818573 101.698349 C-324.00145801 87.73121302 -322.92867342 76.40519664 -312.9974823 65.71006775 C-304.66043585 57.98304909 -297.67259075 55.1982444 -286.4349823 54.33506775 C-286.45592957 53.32605408 -286.47687683 52.31704041 -286.49845886 51.27745056 C-286.57095015 47.52792088 -286.6168145 43.77845293 -286.65470886 40.02842712 C-286.67480374 38.40657632 -286.70208484 36.78479778 -286.73674011 35.16319275 C-286.785355 32.82967794 -286.80797119 30.49712218 -286.8256073 28.16319275 C-286.84625244 27.44012939 -286.86689758 26.71706604 -286.88816833 25.97209167 C-286.88969353 22.537247 -286.69832616 20.68297284 -284.59806824 17.90830994 C-281.44536243 15.61530359 -278.74786911 15.19238668 -274.95745373 14.97775936 C-274.03498134 14.92351738 -273.11250895 14.8692754 -272.16208285 14.81338972 C-271.14694481 14.75793834 -270.13180678 14.70248695 -269.08590698 14.64535522 C-268.00855768 14.58324751 -266.93120837 14.5211398 -265.82121211 14.45715004 C-262.19227634 14.2489963 -258.5630326 14.04680755 -254.9337616 13.84458923 C-252.33848677 13.69699923 -249.74323166 13.54906209 -247.147995 13.40080261 C-240.81453758 13.039724 -234.48083128 12.68320586 -228.14702054 12.32838421 C-222.98940577 12.03940268 -217.8318757 11.74895272 -212.67440224 11.4574604 C-211.94013916 11.41596547 -211.20587608 11.37447055 -210.44936261 11.3317182 C-208.95745424 11.24740576 -207.46554593 11.16309229 -205.97363768 11.0787778 C-191.96445744 10.28727661 -177.95497756 9.50118275 -163.94540206 8.7167135 C-151.17258107 8.00132897 -138.40015109 7.27921644 -125.62789335 6.55385112 C-112.49043212 5.80780739 -99.35271639 5.06640307 -86.21471721 4.32989174 C-78.84853673 3.91686628 -71.48246588 3.50208451 -64.11665916 3.08244133 C-57.83341461 2.72452484 -51.54993771 2.37106009 -45.26613875 2.02300768 C-42.069361 1.84582622 -38.87276308 1.66612543 -35.67636299 1.48224068 C-23.79154692 0.79969937 -11.90411027 0.19517106 0 0 Z M-17.42720222 17.55091763 C-18.75387938 17.62314388 -18.75387938 17.62314388 -20.1073581 17.69682926 C-21.04910476 17.75062042 -21.99085142 17.80441157 -22.96113586 17.85983276 C-24.49659429 17.94452901 -24.49659429 17.94452901 -26.06307209 18.0309363 C-29.47380027 18.2196934 -32.88431751 18.41201844 -36.29484558 18.60435486 C-38.74782685 18.74086815 -41.20081993 18.87716948 -43.65382385 19.01327515 C-49.61276441 19.34452147 -55.57156877 19.6781227 -61.53031076 20.01291578 C-66.37409618 20.28502328 -71.21793372 20.55618404 -76.06180954 20.82667732 C-76.75240938 20.86524366 -77.44300922 20.90380999 -78.15453633 20.943545 C-79.55765232 21.02189883 -80.96076839 21.10025109 -82.36388455 21.17860181 C-95.50458388 21.91250833 -108.6451049 22.64956822 -121.78556965 23.38766111 C-133.05348803 24.02049195 -144.32156785 24.65038041 -155.58976746 25.27818298 C-168.68802932 26.00794679 -181.78617724 26.73970801 -194.88415706 27.47451788 C-196.28136672 27.552896 -197.67857656 27.63127085 -199.07578659 27.70964241 C-199.76317428 27.74819924 -200.45056198 27.78675607 -201.1587796 27.82648129 C-205.99611528 28.09767285 -210.83353016 28.3674218 -215.67097855 28.63659477 C-222.18331624 28.9989991 -228.69546936 29.36459607 -235.20750809 29.73233986 C-237.59755117 29.86682015 -239.98765266 30.00026708 -242.37781525 30.13260651 C-245.6396404 30.31337486 -248.90123385 30.49787482 -252.16279602 30.68331909 C-253.58210818 30.76065974 -253.58210818 30.76065974 -255.03009331 30.83956283 C-255.90932926 30.89032142 -256.7885652 30.94108001 -257.69444466 30.99337673 C-258.8223006 31.05660017 -258.8223006 31.05660017 -259.97294152 31.12110084 C-263.14086684 31.39641358 -266.28707554 31.88536678 -269.4349823 32.33506775 C-269.4349823 39.59506775 -269.4349823 46.85506775 -269.4349823 54.33506775 C-181.6549823 54.33506775 -93.8749823 54.33506775 -3.4349823 54.33506775 C-3.4349823 42.12506775 -3.4349823 29.91506775 -3.4349823 17.33506775 C-10.44930056 17.31224613 -10.44930056 17.31224613 -17.42720222 17.55091763 Z M-300.1849823 77.08506775 C-301.01256042 77.75795837 -301.01256042 77.75795837 -301.8568573 78.44444275 C-310.89812914 89.27606544 -306.4349823 104.37538226 -306.4349823 117.33506775 C-194.2349823 117.33506775 -82.0349823 117.33506775 33.5650177 117.33506775 C35.86579828 94.80460842 35.86579828 94.80460842 27.8540802 77.31163025 C27.30493958 76.86561462 26.75579895 76.419599 26.1900177 75.96006775 C25.64603333 75.49858337 25.10204895 75.037099 24.5415802 74.56163025 C18.17209336 70.60902379 11.51313178 71.05095397 4.27365112 71.07437134 C3.02389651 71.07054579 1.7741419 71.06672024 0.48651594 71.06277877 C-2.97532692 71.05249963 -6.4370662 71.05468035 -9.89891756 71.05895936 C-13.63518857 71.06142673 -17.37143465 71.05241233 -21.10769653 71.04492188 C-28.42452652 71.03217337 -35.74131982 71.03038135 -43.05815905 71.03272214 C-49.00523359 71.0345052 -54.95229699 71.03275591 -60.89937019 71.0284977 C-62.16901 71.02760491 -62.16901 71.02760491 -63.4642991 71.02669409 C-65.18381178 71.02548234 -66.90332446 71.02426821 -68.62283713 71.02305172 C-84.74778858 71.01217571 -100.87271911 71.01433903 -116.99767173 71.02043656 C-131.74920106 71.02560643 -146.50066436 71.01434856 -161.25218063 70.99533834 C-176.40022687 70.9759668 -191.54824186 70.9677027 -206.69630057 70.97146159 C-215.20032617 70.97337459 -223.70429558 70.97087641 -232.20831108 70.95674706 C-239.44740656 70.94484104 -246.68641124 70.94341964 -253.92550796 70.95553722 C-257.61853683 70.96143125 -261.31139955 70.96251095 -265.00441742 70.95053482 C-269.00862104 70.93770047 -273.01242819 70.94812786 -277.01663208 70.96084595 C-278.18277965 70.95347166 -279.34892722 70.94609738 -280.5504126 70.93849963 C-288.29396987 70.99035482 -294.10058072 71.92781308 -300.1849823 77.08506775 Z M-274.4349823 134.33506775 C-274.09800312 162.45477147 -274.09800312 162.45477147 -271.4349823 190.33506775 C-270.55149424 190.33726759 -270.55149424 190.33726759 -269.65015793 190.33951187 C-255.31990751 190.37656052 -240.98987175 190.43554926 -226.65981674 190.51897049 C-219.7298875 190.55878318 -212.80007217 190.59116422 -205.87004089 190.60606384 C-199.184986 190.62045762 -192.50033505 190.65554289 -185.81542206 190.70337677 C-183.26212376 190.71824005 -180.70877508 190.72611158 -178.15543365 190.7269516 C-174.58514552 190.72930804 -171.01584344 190.75628278 -167.44572449 190.78916931 C-166.38477066 190.78413895 -165.32381683 190.77910858 -164.23071289 190.77392578 C-163.25758652 190.78783859 -162.28446014 190.8017514 -161.28184509 190.81608582 C-160.01530153 190.82161657 -160.01530153 190.82161657 -158.72317123 190.82725906 C-155.51590495 191.53903494 -154.36421286 192.69733294 -152.4349823 195.33506775 C-151.93161774 198.23677826 -151.93161774 198.23677826 -151.92704773 201.67356873 C-151.91576843 202.97748062 -151.90448914 204.28139252 -151.89286804 205.62481689 C-151.9006451 207.06794961 -151.90883777 208.51108013 -151.91740417 209.95420837 C-151.91198351 211.47538931 -151.90486116 212.99656499 -151.89616394 214.51773071 C-151.8779208 218.6479268 -151.88500203 222.77772344 -151.89768028 226.90792656 C-151.90780289 231.22890683 -151.89841667 235.54985275 -151.89213562 239.87083435 C-151.88485705 247.12736658 -151.89445238 254.38373601 -151.91349792 261.64024353 C-151.93526714 270.03142611 -151.92821591 278.42221995 -151.9061923 286.81339312 C-151.88804424 294.0160583 -151.88547705 301.2186064 -151.89594698 308.42128706 C-151.9021852 312.72393638 -151.90300859 317.02640293 -151.88980103 321.32904053 C-151.87825169 325.37407453 -151.88625101 329.41860702 -151.90937805 333.46358681 C-151.91467012 334.9486794 -151.9131428 336.43381414 -151.90432739 337.91889 C-151.89340992 339.944767 -151.90952358 341.97073615 -151.92704773 343.99656677 C-151.92855583 345.13070763 -151.93006393 346.26484848 -151.93161774 347.43335724 C-152.55512457 351.02764348 -153.50380796 352.20773793 -156.4349823 354.33506775 C-158.61384964 354.84287643 -158.61384964 354.84287643 -161.01609802 354.85404968 C-161.93032532 354.86796249 -162.84455261 354.88187531 -163.78648376 354.89620972 C-164.78198242 354.89117935 -165.77748108 354.88614899 -166.80314636 354.88096619 C-168.38410095 354.8964727 -168.38410095 354.8964727 -169.99699402 354.91229248 C-173.48168633 354.94179666 -176.96579972 354.94322131 -180.4506073 354.94444275 C-182.86628838 354.95941918 -185.2819592 354.97614519 -187.69761658 354.99455261 C-194.05652834 355.03829818 -200.41530196 355.05824135 -206.77433777 355.07328796 C-213.26286512 355.09283294 -219.75124272 355.13480591 -226.2396698 355.1749115 C-238.97138997 355.25029181 -251.70308727 355.30129753 -264.4349823 355.33506775 C-264.44419725 358.79470136 -264.44965742 362.25433174 -264.45451355 365.713974 C-264.45713196 366.68000549 -264.45975037 367.64603699 -264.46244812 368.64134216 C-264.46896617 374.85825625 -264.36458842 381.06036855 -264.1224823 387.27256775 C-264.08967163 388.33610474 -264.08967163 388.33610474 -264.05619812 389.42112732 C-263.72590661 395.65395274 -262.16580251 400.27679506 -258.1224823 405.08506775 C-252.27182189 409.98329507 -247.54254883 410.77436317 -240.18745422 410.7227478 C-239.26508937 410.72813334 -238.34272451 410.73351888 -237.39240921 410.73906761 C-234.30636627 410.75335783 -231.22075162 410.74624073 -228.13468933 410.73912048 C-225.92020828 410.74482351 -223.70573018 410.75178751 -221.49125671 410.75991821 C-215.47882758 410.77787287 -209.46654422 410.77667676 -203.45409632 410.77097583 C-198.43417555 410.76788707 -193.41428291 410.77397301 -188.39436615 410.78001457 C-175.87378709 410.79486943 -163.35327844 410.79123995 -150.83270441 410.77915127 C-139.96819386 410.76922158 -129.10385368 410.78215555 -118.23936941 410.80608546 C-107.07460788 410.83049081 -95.90990808 410.8396812 -84.74511611 410.83343273 C-78.48059386 410.8300615 -72.21621232 410.83248938 -65.95170975 410.84968376 C-60.0599637 410.86514889 -54.16854287 410.86120178 -48.27680969 410.84237862 C-46.11611366 410.83869147 -43.95539356 410.84180482 -41.7947197 410.8522644 C-38.84159774 410.86546715 -35.88955354 410.85393258 -32.93647766 410.83627319 C-32.0845188 410.8458782 -31.23255993 410.85548321 -30.35478413 410.86537927 C-23.85599 410.78560066 -18.35302033 409.16017463 -13.59513855 404.55381775 C-13.23291199 403.98663025 -12.87068542 403.41944275 -12.4974823 402.83506775 C-12.11720886 402.26788025 -11.73693542 401.70069275 -11.34513855 401.11631775 C-9.40872752 397.32660346 -9.25213331 393.53683747 -9.06535339 389.33287048 C-8.97884018 387.4487722 -8.97884018 387.4487722 -8.89057922 385.52661133 C-8.82974058 384.10729981 -8.7690264 382.68798295 -8.7084198 381.2686615 C-8.63960438 379.7246983 -8.57049139 378.18074835 -8.50111389 376.6368103 C-8.30668722 372.27990673 -8.11809293 367.92276632 -7.93060303 363.56555939 C-7.80989356 360.770513 -7.68758531 357.97554118 -7.56474304 355.18058777 C-6.19025819 323.88947477 -4.90256032 292.59468327 -3.6146698 261.2999115 C-3.57836409 260.41789479 -3.54205838 259.53587809 -3.5046525 258.62713361 C-1.7996222 217.19706345 -0.1207449 175.76592541 1.5650177 134.33506775 C-89.5149823 134.33506775 -180.5949823 134.33506775 -274.4349823 134.33506775 Z M-271.4349823 207.33506775 C-270.53111548 229.85222939 -270.53111548 229.85222939 -269.6210413 252.36913776 C-269.29444339 260.42338348 -268.96878243 268.47766346 -268.64665222 276.53208923 C-268.39156021 282.91024066 -268.13422352 289.28829697 -267.87423557 295.66625077 C-267.73676103 299.04063599 -267.60038067 302.41505714 -267.46669197 305.78959465 C-267.3165732 309.56456275 -267.16248782 313.33934991 -267.00749207 317.11412048 C-266.94275444 318.77676941 -266.94275444 318.77676941 -266.87670898 320.4730072 C-266.83326355 321.51190598 -266.78981812 322.55080475 -266.74505615 323.6211853 C-266.70910623 324.51255912 -266.6731563 325.40393293 -266.63611698 326.32231808 C-266.36805231 330.33759655 -265.87938269 334.33546424 -265.4349823 338.33506775 C-233.4249823 338.33506775 -201.4149823 338.33506775 -168.4349823 338.33506775 C-168.4349823 295.10506775 -168.4349823 251.87506775 -168.4349823 207.33506775 C-202.4249823 207.33506775 -236.4149823 207.33506775 -271.4349823 207.33506775 Z M-238.4349823 427.33506775 C-240.08667755 445.17733596 -240.08667755 445.17733596 -233.1849823 460.71006775 C-227.71229249 463.94392991 -222.31650638 464.58559152 -216.04804993 464.59576416 C-215.33788093 464.59958971 -214.62771194 464.60341525 -213.89602268 464.60735673 C-211.53409505 464.61761394 -209.17241383 464.61370856 -206.81047058 464.60972595 C-205.10977454 464.61407648 -203.40908047 464.61926076 -201.70838928 464.62521362 C-197.10088625 464.6385786 -192.49346538 464.63918505 -187.88594675 464.63665032 C-184.03417837 464.63557886 -180.18242649 464.6404685 -176.33066165 464.64525574 C-167.24058535 464.6563424 -158.15055037 464.65679315 -149.06047058 464.65074158 C-139.69521512 464.6447025 -130.33010993 464.65701307 -120.96488011 464.67831165 C-112.91285056 464.69594773 -104.86086875 464.70192582 -96.80882061 464.6986739 C-92.00473434 464.69686402 -87.20075526 464.69946775 -82.39668655 464.71338844 C-77.87729499 464.72599474 -73.35813705 464.72399624 -68.83874893 464.71097755 C-67.18481364 464.70861828 -65.53086176 464.71132311 -63.8769455 464.71960068 C-49.93542849 465.19785402 -49.93542849 465.19785402 -37.9974823 459.02256775 C-31.89808011 448.53159598 -34.4349823 440.86106212 -34.4349823 427.33506775 C-101.7549823 427.33506775 -169.0749823 427.33506775 -238.4349823 427.33506775 Z " fill="#000000" transform="translate(392.4349822998047,15.664932250976563)"/>
</svg>
