<?xml version="1.0" encoding="UTF-8"?>
<svg version="1.1" xmlns="http://www.w3.org/2000/svg" width="1332" height="1332">
<path d="M0 0 C1.25679397 0.00001203 2.51358794 0.00002405 3.80846658 0.00003644 C10.17004351 0.00009936 16.53162045 0.00017117 22.89319739 0.00024344 C24.15530977 0.00025774 25.41742216 0.00027204 26.71778038 0.00028677 C29.26896096 0.00031812 31.82014155 0.00035332 34.37132213 0.00039237 C74.63726745 0.00099089 114.90320451 -0.00669992 155.16914749 -0.02017403 C201.00885087 -0.03550924 246.84854885 -0.04414378 292.68825495 -0.0432108 C297.55407437 -0.04313621 302.41989378 -0.04308748 307.2857132 -0.04305649 C309.08134725 -0.04303901 309.08134725 -0.04303901 310.91325673 -0.04302117 C330.09910682 -0.04299051 349.28494959 -0.04934459 368.4707975 -0.05798875 C387.58144789 -0.0664247 406.6920875 -0.0674852 425.80273871 -0.06087943 C437.13449845 -0.05717334 448.46622553 -0.05904981 459.79798184 -0.06882177 C467.34641755 -0.07478448 474.89482938 -0.07356843 482.44326395 -0.06635127 C486.74775393 -0.06244195 491.05218022 -0.06177401 495.35666589 -0.06980862 C499.26292783 -0.07703765 503.1690724 -0.07521069 507.07532894 -0.06588476 C508.48542564 -0.06415138 509.89553131 -0.06583059 511.3056189 -0.07118597 C513.20886672 -0.07793566 515.11214823 -0.07131318 517.01539361 -0.06391114 C518.60074152 -0.06404347 518.60074152 -0.06404347 520.21811666 -0.06417848 C522.82100296 0.18563652 522.82100296 0.18563652 525.82100296 2.18563652 C526.15924202 4.733435 526.2967727 7.0480438 526.3134346 9.60409355 C526.33020972 10.38486008 526.34698484 11.1656266 526.3642683 11.97005272 C526.41753442 14.62779416 526.44922698 17.28537127 526.48115921 19.94344902 C526.51503378 21.87562986 526.55014558 23.80778934 526.58638382 25.73992729 C526.68311693 31.11885322 526.7604602 36.49791549 526.8345108 41.87719536 C526.9004795 46.50037662 526.9773361 51.12335134 527.05417919 55.74636269 C527.31913955 71.71856555 527.54358082 87.69124839 527.75972366 103.6641674 C527.81179184 107.51149146 527.86440313 111.35880787 527.91717011 115.2061224 C528.74317934 175.44527029 529.52462637 235.6856835 530.09834671 295.92782402 C530.10810091 296.95086758 530.11785511 297.97391113 530.12790489 299.02795601 C530.20198011 306.82067285 530.2753395 314.61339667 530.34726715 322.40613365 C530.68006401 358.42255713 531.26491362 394.43301406 531.88824463 430.44547081 C532.61699829 472.55038051 533.15006035 514.65320418 533.45599461 556.76337242 C533.49391794 561.96143252 533.53376296 567.15947599 533.57490921 572.35751152 C533.58277262 573.35894943 533.59063602 574.36038734 533.59873772 575.39217186 C533.71986423 590.23581256 533.98603709 605.07231909 534.33662796 619.91219902 C534.77204625 638.37857819 535.00899647 656.83520794 535.00630569 675.30673027 C535.0062232 678.34161997 535.01340446 681.3763626 535.02681351 684.41122246 C535.25854127 737.89737825 531.87402523 787.20135906 492.82100296 827.18563652 C492.26944534 827.75234062 491.71788773 828.31904472 491.14961624 828.90292168 C485.476028 834.71015951 479.76404829 840.40552761 473.56319046 845.65438652 C471.79425265 847.209148 470.19255861 848.85373583 468.57100296 850.56063652 C463.35313688 855.87512975 455.29815385 863.94914469 447.55928421 864.28329277 C446.7587764 864.27169121 445.95826859 864.26008965 445.13350296 864.24813652 C443.92113968 864.23460136 443.92113968 864.23460136 442.68428421 864.22079277 C442.0694014 864.20919121 441.45451859 864.19758965 440.82100296 864.18563652 C440.82100296 865.17563652 440.82100296 866.16563652 440.82100296 867.18563652 C439.83100296 867.18563652 438.84100296 867.18563652 437.82100296 867.18563652 C437.82100296 868.17563652 437.82100296 869.16563652 437.82100296 870.18563652 C436.83100296 870.18563652 435.84100296 870.18563652 434.82100296 870.18563652 C434.82100296 871.17563652 434.82100296 872.16563652 434.82100296 873.18563652 C433.83100296 873.18563652 432.84100296 873.18563652 431.82100296 873.18563652 C431.82100296 874.17563652 431.82100296 875.16563652 431.82100296 876.18563652 C430.83100296 876.18563652 429.84100296 876.18563652 428.82100296 876.18563652 C428.70853226 876.78706474 428.59606155 877.38849297 428.48018265 878.00814629 C427.41620854 881.52280743 424.66298042 883.65150087 422.07100296 886.12313652 C421.54506546 886.63553886 421.01912796 887.14794121 420.47725296 887.6758709 C419.42244923 888.70326018 418.3648919 889.72782972 417.30464554 890.74960136 C416.0361019 891.97743972 414.78420363 893.22243585 413.53584671 894.47079277 C411.1438262 896.86281328 408.73014456 899.22915625 406.30928421 901.59188652 C397.57273054 910.16409252 389.29278958 918.55272222 382.1037178 928.4751873 C379.4462171 932.01885877 376.58648484 935.40274691 373.75850296 938.81063652 C373.15361038 939.54089043 372.5487178 940.27114433 371.92549515 941.02352715 C370.75323553 942.43843362 369.58056136 943.85299676 368.40742874 945.26717949 C366.32134418 947.78987147 364.25868003 950.33128946 362.19600296 952.87313652 C357.35624491 958.79535432 352.36650508 964.58545621 347.37373734 970.37850761 C345.83454314 972.16987796 344.30313177 973.96759539 342.77412796 975.76766777 C337.06773366 982.47765758 331.25092942 989.05506287 325.27022171 995.52157402 C323.25226517 997.71654429 321.27296851 999.93229862 319.32100296 1002.18563652 C315.95574805 1006.06614577 312.4838468 1009.84585932 309.00630569 1013.62533379 C306.1113266 1016.77312361 303.23731606 1019.93784604 300.38350296 1023.12313652 C296.38444935 1027.58004243 292.32646292 1031.97977108 288.25825882 1036.37338066 C285.29361613 1039.57884472 282.35559732 1042.80491941 279.44600296 1046.06063652 C275.57605049 1050.37549228 271.64600778 1054.63169524 267.69600296 1058.87313652 C267.12188675 1059.49108086 266.54777054 1060.10902519 265.95625687 1060.74569511 C263.05720743 1063.85057458 260.1207545 1066.90348027 257.10615921 1069.89657402 C254.75885421 1072.22786873 252.51643055 1074.59132378 250.38350296 1077.12313652 C244.98420888 1083.3660703 239.13511073 1089.05079971 232.86397171 1094.41219902 C231.48700267 1095.60750293 230.13542129 1096.83261262 228.80928421 1098.08407402 C222.38273931 1104.09485354 215.33797959 1108.67545054 207.82100296 1113.18563652 C206.98826859 1113.69352715 206.15553421 1114.20141777 205.29756546 1114.72469902 C158.18304695 1140.93516495 79.68401114 1122.11961833 29.29146194 1116.84872246 C-12.30897891 1112.51255476 -54.68272255 1108.95173421 -89.17899704 1136.81063652 C-95.78657012 1142.48098034 -101.89287684 1148.7273123 -108.05399704 1154.87313652 C-108.55254196 1155.37041252 -109.05108688 1155.86768852 -109.56473923 1156.38003349 C-115.31877521 1162.13572893 -120.91164383 1167.97829214 -126.17899704 1174.18563652 C-127.11707668 1175.26829416 -128.0558515 1176.35034995 -128.99540329 1177.43173027 C-135.10228255 1184.51659128 -141.09372639 1191.68829958 -147.02347946 1198.92196465 C-151.10768422 1203.9002439 -155.24694364 1208.82711576 -159.42191696 1213.72933769 C-162.02564398 1216.79552131 -164.56408516 1219.90156082 -167.05399704 1223.06063652 C-172.07526799 1229.39675574 -177.41974313 1235.45491409 -182.7400322 1241.53964043 C-183.91341938 1242.88184884 -185.08376485 1244.22671587 -186.25321579 1245.57235527 C-187.34048756 1246.82183075 -188.43142564 1248.06812887 -189.52665329 1249.31063652 C-190.75066074 1250.69958114 -191.9654054 1252.0967006 -193.17509079 1253.49813652 C-214.99509621 1278.39083433 -241.02405101 1292.32544768 -274.17899704 1295.18563652 C-280.77797812 1295.56525662 -287.38356793 1295.57621363 -293.99149704 1295.56063652 C-295.36717346 1295.55932228 -295.36717346 1295.55932228 -296.77064133 1295.55798149 C-330.10413428 1295.45399087 -362.0789515 1289.33453249 -395.17899704 1284.18563652 C-395.17899704 1228.74563652 -395.17899704 1173.30563652 -395.17899704 1116.18563652 C-426.36399704 1116.68063652 -426.36399704 1116.68063652 -458.17899704 1117.18563652 C-475.24688349 1117.27046555 -492.31271417 1117.35253392 -509.38051224 1117.3524971 C-515.19156865 1117.35311111 -521.00262007 1117.35583562 -526.81367515 1117.35973007 C-539.09648935 1117.36790066 -551.37929651 1117.37178654 -563.66211334 1117.37106033 C-564.3455707 1117.37102038 -565.02902807 1117.37098042 -565.73319626 1117.37093925 C-566.41752089 1117.37089837 -567.10184552 1117.37085749 -567.80690727 1117.37081537 C-579.06234517 1117.37040299 -590.3177506 1117.38015175 -601.57317904 1117.39407762 C-613.25612903 1117.40841555 -624.93906151 1117.41516673 -636.62202048 1117.41448385 C-643.13309585 1117.41422945 -649.64413343 1117.41705417 -656.15520096 1117.4276619 C-662.21996107 1117.43728786 -668.28464647 1117.43746045 -674.3494091 1117.43014526 C-676.57353257 1117.42909534 -678.79766063 1117.43148626 -681.0217762 1117.43750572 C-684.04556589 1117.4451652 -687.06909285 1117.44062281 -690.09287643 1117.43287468 C-690.97888291 1117.43801824 -691.86488938 1117.44316181 -692.77774453 1117.44846123 C-698.83657497 1117.4139179 -698.83657497 1117.4139179 -702.17899704 1115.18563652 C-702.56079 1112.80864739 -702.56079 1112.80864739 -702.57057476 1109.74759102 C-702.58157477 1108.58030142 -702.59257478 1107.41301181 -702.60390812 1106.2103498 C-702.60080645 1104.91170186 -702.59770478 1103.61305393 -702.59450912 1102.27505302 C-702.60182732 1100.88339974 -702.61046072 1099.49175285 -702.62029356 1098.10011506 C-702.64377876 1094.22752865 -702.64836723 1090.35510426 -702.65022478 1086.48245537 C-702.65558149 1082.2425974 -702.67836447 1078.00282781 -702.69896507 1073.76302147 C-702.73308336 1066.24335833 -702.75596886 1058.7237232 -702.7718792 1051.20400047 C-702.79595429 1039.87562484 -702.83735881 1028.54735823 -702.8824003 1017.21904889 C-702.95549814 998.73749096 -703.01723217 980.25591336 -703.07194684 961.77429256 C-703.1384041 939.330552 -703.21456048 916.88687057 -703.30234909 894.44320488 C-703.30641099 893.40422154 -703.30641099 893.40422154 -703.31055495 892.34424865 C-703.34113165 884.52941129 -703.3719869 876.71457506 -703.40295911 868.89973927 C-703.46117893 854.20919327 -703.51843549 839.51864352 -703.57538986 824.82809258 C-703.57826397 824.08714822 -703.58113808 823.34620387 -703.58409928 822.58280665 C-703.77852005 772.43851578 -703.95092137 722.29414532 -704.12535064 672.14978176 C-704.20847982 648.25450107 -704.2933559 624.35922707 -704.37943649 600.46395683 C-704.48139075 572.16063809 -704.5823023 543.85731593 -704.68160146 515.55398774 C-704.69225652 512.51767301 -704.70291368 509.48135829 -704.71357155 506.44504356 C-704.71619135 505.69842199 -704.71881115 504.95180041 -704.72151034 504.18255394 C-704.75760492 493.90018363 -704.79428539 483.61781558 -704.83143802 473.33544904 C-704.9386524 443.64467015 -705.04036284 413.95389343 -705.12005728 384.26302457 C-705.15105045 372.74984498 -705.18473361 361.23669558 -705.22792816 349.72355461 C-705.26302198 340.36352731 -705.29111071 331.00351382 -705.30959446 321.64343829 C-705.31893455 317.00119437 -705.33126406 312.35902121 -705.35300839 307.71681738 C-705.58329109 257.17562529 -700.6402628 209.52285198 -680.10108566 162.76145744 C-673.05206548 146.70833358 -666.87838032 130.39358215 -660.85511398 113.93385887 C-659.48153838 110.18627255 -658.09883464 106.44206063 -656.71610641 102.69784355 C-656.43409252 101.93419235 -656.15207863 101.17054115 -655.86151886 100.38374901 C-655.28598764 98.82547178 -654.71040417 97.26721384 -654.13476944 95.70897484 C-653.26277622 93.3477609 -652.39163541 90.9862338 -651.52061081 88.6246624 C-645.26633063 71.67574543 -638.91463703 54.76370034 -632.54426956 37.85813332 C-631.68087674 35.56562755 -630.81862971 33.27269415 -629.95676804 30.97961235 C-628.60684687 27.38808254 -627.25478314 23.79736752 -625.90087128 20.20734024 C-625.40461652 18.89062639 -624.90903769 17.57365758 -624.41418457 16.25641632 C-623.7382371 14.45779708 -623.05927861 12.66031027 -622.38016891 10.86288261 C-622.00114426 9.85712181 -621.6221196 8.85136101 -621.23160934 7.8151226 C-620.31675753 5.52977015 -619.29418987 3.37690815 -618.17899704 1.18563652 C-528.0679288 0.66251226 -437.95529778 0.27903303 0 0 Z M-505.17899704 114.18563652 C-505.17899704 380.16563652 -505.17899704 646.14563652 -505.17899704 920.18563652 C-422.34899704 920.18563652 -339.51899704 920.18563652 -254.17899704 920.18563652 C-254.17899704 974.30563652 -254.17899704 1028.42563652 -254.17899704 1084.18563652 C-249.37624773 1080.06899425 -246.26932295 1077.40222746 -242.74149704 1072.56063652 C-241.97321579 1071.50747246 -241.20493454 1070.4543084 -240.41337204 1069.36923027 C-238.38810717 1066.48358189 -236.42587691 1063.57017252 -234.49149704 1060.62313652 C-225.3645792 1046.76977908 -215.1775428 1033.67861228 -204.60282516 1020.90926933 C-202.59059231 1018.47333587 -200.60591954 1016.01521177 -198.61649704 1013.56063652 C-191.10909942 1004.40023392 -183.38521082 995.41800694 -175.40946579 986.66219902 C-174.15922277 985.27401325 -172.91564284 983.87949648 -171.69730759 982.46322441 C-159.85961653 968.718722 -146.91526994 955.79647361 -132.17899704 945.18563652 C-131.18641891 944.43669121 -130.19384079 943.6877459 -129.17118454 942.91610527 C-116.62989375 933.75871775 -102.68913704 926.1401566 -87.80399704 921.62313652 C-87.05754929 921.39601982 -86.31110153 921.16890312 -85.54203415 920.9349041 C-71.85900207 917.13414392 -58.0102615 916.85012111 -43.92899704 916.93563652 C-43.03036942 916.93840599 -42.13174179 916.94117546 -41.20588303 916.94402885 C-0.93133855 917.08738603 39.22058913 919.39042143 78.98115921 925.91610527 C86.81009024 927.20025699 94.6503818 928.34581296 102.50850296 929.43563652 C103.65931351 929.59862236 104.81012405 929.7616082 105.99580765 929.929533 C169.48077078 938.66637934 224.78512487 921.99379509 275.65108109 883.84432793 C281.24202692 879.57060088 286.67630687 875.1070864 292.09004593 870.61239433 C293.61303135 869.3570591 295.15506211 868.12490564 296.69990921 866.89657402 C313.32643834 853.66473117 329.70712786 838.349976 342.86787796 821.63094902 C344.6648484 819.38114203 346.54493632 817.28945792 348.50850296 815.18563652 C375.99406296 784.53076741 396.2080825 745.98237808 412.94600296 708.68563652 C413.47838577 707.49961845 414.01076859 706.31360039 414.55928421 705.09164238 C432.54123774 664.41556209 430.37429016 615.45502944 430.20732117 571.73617363 C430.19581322 568.44385247 430.18974713 565.15155781 430.18492508 561.8592205 C430.12446783 526.85464384 429.07876723 492.1205899 426.82100296 457.18563652 C420.22950512 342.93300737 416.53627841 228.5310662 411.82100296 114.18563652 C109.21100296 114.18563652 -193.39899704 114.18563652 -505.17899704 114.18563652 Z " fill="#000000" transform="translate(743.1789970397949,21.814363479614258)"/>
<path d="M0 0 C1.2485686 0.00138269 1.2485686 0.00138269 2.5223608 0.00279331 C3.47453487 0.00141865 4.42670895 0.00004398 5.40773678 -0.00137234 C6.46077496 0.00222294 7.51381313 0.00581821 8.59876156 0.00952244 C10.25221081 0.0093034 10.25221081 0.0093034 11.93906307 0.00907993 C15.60226021 0.00977961 19.26540723 0.01757459 22.92859554 0.02539158 C25.46065398 0.02725556 27.99271277 0.02867956 30.52477169 0.0296793 C36.52067179 0.03311437 42.51655019 0.04100514 48.51244158 0.05102879 C55.33699987 0.06219105 62.16155901 0.06770066 68.98612416 0.07272422 C83.02815609 0.08318779 97.07017132 0.10092423 111.11218929 0.12304783 C112.0907095 7.96493838 112.25819603 15.70947885 112.25263119 23.60569859 C112.25522007 24.94862724 112.25823467 26.29155512 112.26163459 27.63448197 C112.26964492 31.30021048 112.27149078 34.96591935 112.27223206 38.63165557 C112.27409282 42.59408801 112.28164466 46.5565105 112.28836727 50.51893711 C112.3019032 59.1670295 112.30796637 67.81511723 112.31237793 76.46321845 C112.31514538 81.86280493 112.31938335 87.26238963 112.3238821 92.66197491 C112.33606286 107.61531143 112.34636823 122.56864654 112.34975719 137.52198792 C112.35008654 138.95508814 112.35008654 138.95508814 112.35042255 140.41713989 C112.35074996 141.85359355 112.35074996 141.85359355 112.35108399 143.31906646 C112.35152746 145.25950491 112.35197402 147.19994336 112.35242367 149.14038181 C112.3526451 150.10289905 112.35286653 151.06541629 112.35309467 152.05710072 C112.35705025 167.68405418 112.3745327 183.31096122 112.39778319 198.93789672 C112.42146716 214.98553575 112.4339575 231.03315143 112.43512511 247.08080822 C112.43604293 256.08990836 112.441823 265.09894782 112.45994473 274.10803127 C112.47530504 281.7709392 112.48048992 289.43376764 112.47220662 297.09668802 C112.46828717 301.00797876 112.4692928 304.9191092 112.48326397 308.83038044 C112.4982473 313.06346496 112.49017609 317.29618473 112.47968197 321.52928257 C112.49176658 323.39694386 112.49176658 323.39694386 112.50409532 325.30233568 C112.49421055 326.99497516 112.49421055 326.99497516 112.48412609 328.72180939 C112.48472318 329.6994846 112.48532027 330.6771598 112.48593545 331.68446153 C112.04902353 334.53518632 111.4061942 335.42887168 109.11218929 337.12304783 C107.04913235 337.49777794 107.04913235 337.49777794 104.6335516 337.49726963 C103.71662029 337.50428394 102.79968899 337.51129826 101.85497189 337.51852512 C100.85124035 337.51088139 99.84750881 337.50323765 98.81336117 337.49536228 C97.75460278 337.49901295 96.69584438 337.50266361 95.6050024 337.5064249 C92.09681942 337.51454684 88.58909594 337.50090628 85.08093929 337.48632908 C82.64860694 337.48581067 80.21627416 337.48632762 77.78394222 337.4878397 C72.68284519 337.4877499 67.58190595 337.47730496 62.48084164 337.45922947 C55.93337789 337.4365422 49.38614484 337.43599745 42.83865261 337.44274712 C37.81502885 337.44608434 32.79145795 337.43946163 27.7678442 337.42961788 C25.35324537 337.42576135 22.93864066 337.42461953 20.52403927 337.42620373 C17.15291749 337.42657348 13.78209444 337.41397919 10.41101742 337.39770603 C9.40728588 337.40018345 8.40355434 337.40266087 7.3694067 337.40521336 C6.4524754 337.39812855 5.53554409 337.39104374 4.59082699 337.38374424 C3.79368534 337.38169137 2.99654369 337.3796385 2.17524624 337.37752342 C0.11218929 337.12304783 0.11218929 337.12304783 -2.88781071 335.12304783 C-3.26155686 332.73418373 -3.26155686 332.73418373 -3.25974751 329.6635437 C-3.26633735 328.49672418 -3.27292719 327.32990466 -3.27971673 326.12772697 C-3.27166033 324.83465804 -3.26360392 323.54158912 -3.25530338 322.20933628 C-3.25732604 320.83063707 -3.26066341 319.45193926 -3.26520896 318.07324606 C-3.27389206 314.27148182 -3.26375933 310.46996022 -3.25066662 306.66821706 C-3.23980384 302.57343824 -3.24617591 298.47868274 -3.25045109 294.38389683 C-3.25609552 286.35729482 -3.24574895 278.33078802 -3.23016313 270.30420225 C-3.21266223 260.96646924 -3.21120469 251.62875492 -3.21054754 242.29100806 C-3.20885799 225.63628649 -3.19302454 208.98160841 -3.16906071 192.32690525 C-3.14579755 176.1475396 -3.13163567 159.96820155 -3.12804508 143.78881931 C-3.12771093 142.2939708 -3.12771093 142.2939708 -3.12737003 140.76892333 C-3.12692745 138.76147156 -3.12648542 136.75401978 -3.12604396 134.746568 C-3.12582439 133.75642408 -3.12560483 132.76628017 -3.12537861 131.7461319 C-3.12516262 130.75856761 -3.12494664 129.77100333 -3.12472411 128.75351286 C-3.12102712 113.3601514 -3.10966744 97.96679443 -3.09724821 82.57343788 C-3.09280635 76.98449262 -3.08937082 71.39554779 -3.08662608 65.80660146 C-3.08220153 56.9433295 -3.07445623 48.08007406 -3.05985168 39.21681254 C-3.05322598 35.16411352 -3.04817577 31.11142914 -3.04739094 27.0587244 C-3.04660806 23.35480585 -3.04124146 19.65092441 -3.03207144 15.94701738 C-3.02834592 13.9595568 -3.0295488 11.97208891 -3.03087831 9.98462528 C-3.02511659 8.23830762 -3.02511659 8.23830762 -3.01923847 6.45671082 C-3.01799197 5.44356196 -3.01674548 4.4304131 -3.01546121 3.38656276 C-2.85744736 0.58464114 -2.80066588 0.18254789 0 0 Z " fill="#000000" transform="translate(850.8878107070923,356.8769521713257)"/>
<path d="M0 0 C1.2485686 0.00138269 1.2485686 0.00138269 2.5223608 0.00279331 C3.47453487 0.00141865 4.42670895 0.00004398 5.40773678 -0.00137234 C6.46077496 0.00222294 7.51381313 0.00581821 8.59876156 0.00952244 C10.25221081 0.0093034 10.25221081 0.0093034 11.93906307 0.00907993 C15.60226021 0.00977961 19.26540723 0.01757459 22.92859554 0.02539158 C25.46065398 0.02725556 27.99271277 0.02867956 30.52477169 0.0296793 C36.52067179 0.03311437 42.51655019 0.04100514 48.51244158 0.05102879 C55.33699987 0.06219105 62.16155901 0.06770066 68.98612416 0.07272422 C83.02815609 0.08318779 97.07017132 0.10092423 111.11218929 0.12304783 C112.0907095 7.96493838 112.25819603 15.70947885 112.25263119 23.60569859 C112.25522007 24.94862724 112.25823467 26.29155512 112.26163459 27.63448197 C112.26964492 31.30021048 112.27149078 34.96591935 112.27223206 38.63165557 C112.27409282 42.59408801 112.28164466 46.5565105 112.28836727 50.51893711 C112.3019032 59.1670295 112.30796637 67.81511723 112.31237793 76.46321845 C112.31514538 81.86280493 112.31938335 87.26238963 112.3238821 92.66197491 C112.33606286 107.61531143 112.34636823 122.56864654 112.34975719 137.52198792 C112.35008654 138.95508814 112.35008654 138.95508814 112.35042255 140.41713989 C112.35074996 141.85359355 112.35074996 141.85359355 112.35108399 143.31906646 C112.35152746 145.25950491 112.35197402 147.19994336 112.35242367 149.14038181 C112.3526451 150.10289905 112.35286653 151.06541629 112.35309467 152.05710072 C112.35705025 167.68405418 112.3745327 183.31096122 112.39778319 198.93789672 C112.42146716 214.98553575 112.4339575 231.03315143 112.43512511 247.08080822 C112.43604293 256.08990836 112.441823 265.09894782 112.45994473 274.10803127 C112.47530504 281.7709392 112.48048992 289.43376764 112.47220662 297.09668802 C112.46828717 301.00797876 112.4692928 304.9191092 112.48326397 308.83038044 C112.4982473 313.06346496 112.49017609 317.29618473 112.47968197 321.52928257 C112.49176658 323.39694386 112.49176658 323.39694386 112.50409532 325.30233568 C112.49421055 326.99497516 112.49421055 326.99497516 112.48412609 328.72180939 C112.48472318 329.6994846 112.48532027 330.6771598 112.48593545 331.68446153 C112.04902353 334.53518632 111.4061942 335.42887168 109.11218929 337.12304783 C107.04913235 337.49777794 107.04913235 337.49777794 104.6335516 337.49726963 C103.71662029 337.50428394 102.79968899 337.51129826 101.85497189 337.51852512 C100.85124035 337.51088139 99.84750881 337.50323765 98.81336117 337.49536228 C97.75460278 337.49901295 96.69584438 337.50266361 95.6050024 337.5064249 C92.09681942 337.51454684 88.58909594 337.50090628 85.08093929 337.48632908 C82.64860694 337.48581067 80.21627416 337.48632762 77.78394222 337.4878397 C72.68284519 337.4877499 67.58190595 337.47730496 62.48084164 337.45922947 C55.93337789 337.4365422 49.38614484 337.43599745 42.83865261 337.44274712 C37.81502885 337.44608434 32.79145795 337.43946163 27.7678442 337.42961788 C25.35324537 337.42576135 22.93864066 337.42461953 20.52403927 337.42620373 C17.15291749 337.42657348 13.78209444 337.41397919 10.41101742 337.39770603 C9.40728588 337.40018345 8.40355434 337.40266087 7.3694067 337.40521336 C6.4524754 337.39812855 5.53554409 337.39104374 4.59082699 337.38374424 C3.79368534 337.38169137 2.99654369 337.3796385 2.17524624 337.37752342 C0.11218929 337.12304783 0.11218929 337.12304783 -2.88781071 335.12304783 C-3.26155686 332.73418373 -3.26155686 332.73418373 -3.25974751 329.6635437 C-3.26633735 328.49672418 -3.27292719 327.32990466 -3.27971673 326.12772697 C-3.27166033 324.83465804 -3.26360392 323.54158912 -3.25530338 322.20933628 C-3.25732604 320.83063707 -3.26066341 319.45193926 -3.26520896 318.07324606 C-3.27389206 314.27148182 -3.26375933 310.46996022 -3.25066662 306.66821706 C-3.23980384 302.57343824 -3.24617591 298.47868274 -3.25045109 294.38389683 C-3.25609552 286.35729482 -3.24574895 278.33078802 -3.23016313 270.30420225 C-3.21266223 260.96646924 -3.21120469 251.62875492 -3.21054754 242.29100806 C-3.20885799 225.63628649 -3.19302454 208.98160841 -3.16906071 192.32690525 C-3.14579755 176.1475396 -3.13163567 159.96820155 -3.12804508 143.78881931 C-3.12771093 142.2939708 -3.12771093 142.2939708 -3.12737003 140.76892333 C-3.12692745 138.76147156 -3.12648542 136.75401978 -3.12604396 134.746568 C-3.12582439 133.75642408 -3.12560483 132.76628017 -3.12537861 131.7461319 C-3.12516262 130.75856761 -3.12494664 129.77100333 -3.12472411 128.75351286 C-3.12102712 113.3601514 -3.10966744 97.96679443 -3.09724821 82.57343788 C-3.09280635 76.98449262 -3.08937082 71.39554779 -3.08662608 65.80660146 C-3.08220153 56.9433295 -3.07445623 48.08007406 -3.05985168 39.21681254 C-3.05322598 35.16411352 -3.04817577 31.11142914 -3.04739094 27.0587244 C-3.04660806 23.35480585 -3.04124146 19.65092441 -3.03207144 15.94701738 C-3.02834592 13.9595568 -3.0295488 11.97208891 -3.03087831 9.98462528 C-3.02511659 8.23830762 -3.02511659 8.23830762 -3.01923847 6.45671082 C-3.01799197 5.44356196 -3.01674548 4.4304131 -3.01546121 3.38656276 C-2.85744736 0.58464114 -2.80066588 0.18254789 0 0 Z " fill="#000000" transform="translate(544.8878107070923,356.8769521713257)"/>
</svg>
